<?xml version="1.0" encoding="utf-8"?>
<!-- Generator: Adobe Illustrator 16.0.0, SVG Export Plug-In . SVG Version: 6.00 Build 0)  -->
<!DOCTYPE svg PUBLIC "-//W3C//DTD SVG 1.1//EN" "http://www.w3.org/Graphics/SVG/1.1/DTD/svg11.dtd">
<svg version="1.1" id="Layer_2" xmlns="http://www.w3.org/2000/svg" xmlns:xlink="http://www.w3.org/1999/xlink" x="0px" y="0px"
	 width="323.979px" height="327.868px" viewBox="0 0 323.979 327.868" enable-background="new 0 0 323.979 327.868"
	 xml:space="preserve">
<g>
	<circle fill="#231F20" cx="164.218" cy="163.06" r="159.366"/>
	<g>
		<path fill="#231F20" d="M321.64,137.931c0.058,0.493,0.153,1.267,0.188,1.888C321.58,138.036,321.361,137.186,321.64,137.931z"/>
		<path fill="#231F20" d="M323.167,163.06c-0.041-1.625-0.088-3.487-0.139-5.467c-0.03-0.99-0.028-2.011-0.082-3.043
			c-0.069-1.032-0.141-2.079-0.211-3.126c-0.065-1.047-0.13-2.095-0.193-3.127c-0.03-0.517-0.06-1.029-0.089-1.537
			c-0.052-0.505-0.103-1.004-0.153-1.497c-0.197-1.969-0.361-3.823-0.472-5.445c0.217,1.429,0.526,3.464,0.872,5.743
			c0.352,2.28,0.509,4.832,0.735,7.256c0.255,2.424,0.186,4.747,0.168,6.577C323.555,161.225,323.424,162.568,323.167,163.06z"/>
		<path fill="#231F20" d="M323.166,136.505c0,0,0.321,2.024,0.458,4.072c0.178,2.04,0.355,4.08,0.355,4.08
			c-0.446-2.358-0.516-3.332-0.527-4.251C323.438,139.486,323.513,138.617,323.166,136.505z"/>
		<path fill="#231F20" d="M322.642,139.595l-0.445-0.363c0,0-0.002-0.273-0.034-0.68c-0.036-0.406-0.084-0.948-0.131-1.49
			c-0.096-1.086-0.191-2.172-0.191-2.172s0.212,1.174,0.424,2.349c0.103,0.588,0.222,1.173,0.282,1.616
			C322.604,139.299,322.642,139.595,322.642,139.595z"/>
		<path fill="#231F20" d="M19.98,103.033c0.45-0.706,0.841-1.091,0.903-0.643L19.98,103.033z"/>
		<path fill="#231F20" d="M12.224,119.917c-0.517,1.591-0.866,2.707-1.152,3.667C11.353,122.471,11.658,121.558,12.224,119.917z"/>
		<path fill="#231F20" d="M27.079,87.897c0,0-0.406,0.71-0.752,1.453c-0.36,0.734-0.72,1.469-0.72,1.469
			C26.043,89.873,26.499,88.814,27.079,87.897z"/>
		<path fill="#231F20" d="M201.444,9.626c0.731,0.241,1.452,0.48,2.156,0.712c0.693,0.266,1.369,0.525,2.02,0.774
			c1.299,0.492,2.497,0.946,3.53,1.337c-2.906-0.666-4.434-1.19-5.435-1.654C202.705,10.367,202.226,10.006,201.444,9.626z"/>
		<path fill="#231F20" d="M6.142,205.954l0.532,0.71C6.783,207.572,6.771,208.042,6.142,205.954z"/>
		<path fill="#231F20" d="M5.889,122.92c0.199-0.037,0.289,0.173,0.305,0.544c-0.1,0.317-0.203,0.645-0.298,0.95L5.889,122.92z"/>
		<path fill="#231F20" d="M33.258,76.449c0.017-0.043,0.047-0.118,0.069-0.172c0,0,0.404-0.533,0.808-1.066
			c0.428-0.516,0.856-1.032,0.856-1.032C34.195,75.366,33.676,76.11,33.258,76.449z"/>
		<path fill="#231F20" d="M14.971,231.57c0.343,1.168,0.596,2.336,0.786,3.376C14.766,232.506,14.57,231.251,14.971,231.57z"/>
		<path fill="#231F20" d="M10.971,124.032c-0.013,0.035-0.009-0.002-0.022,0.032c0.035-0.134,0.09-0.351,0.124-0.48
			C11.034,123.754,11.007,123.87,10.971,124.032z"/>
		<path fill="#231F20" d="M15.321,96.83c-0.638,1.318-1.293,2.53-1.904,3.977c0.294-0.887,0.634-1.674,0.982-2.336
			C14.736,97.803,15.052,97.248,15.321,96.83z"/>
		<path fill="#231F20" d="M201.444,9.626c-0.83-0.274-1.651-0.546-2.481-0.821C200.159,9.088,200.875,9.354,201.444,9.626z"/>
		<path fill="#231F20" d="M316.072,116.903c-0.74-2.501-0.796-3.132-0.714-3.681C315.714,114.622,316.019,115.869,316.072,116.903z"
			/>
		<path fill="#231F20" d="M321.358,169.392l0.034-1.032C321.399,168.797,321.381,169.129,321.358,169.392z"/>
		<path fill="#231F20" d="M286.789,260.227c-0.342,0.32-0.704,0.653-1.004,0.866C286.239,260.38,286.647,260.099,286.789,260.227z"
			/>
		<path fill="#231F20" d="M215.874,318.887c1.562-0.652,3.164-1.221,4.777-1.746c1.585-0.598,3.184-1.145,4.766-1.669
			c3.19-0.982,6.183-2.196,8.896-3.361l-1.999,0.472c0,0,1.387-0.537,2.774-1.075c0.699-0.26,1.364-0.59,1.878-0.808
			c0.51-0.226,0.85-0.377,0.85-0.377l-0.313-0.475c8.943-4.086,18.859-11.191,22.19-12.688l-1.459-0.072
			c0,0,2.216-1.366,4.431-2.732c2.156-1.465,4.311-2.931,4.311-2.931s-1.266,0.8-2.531,1.601c-0.632,0.398-1.263,0.797-1.736,1.096
			c-0.468,0.305-0.799,0.481-0.799,0.481c1.143-0.903,2.361-1.864,3.62-2.858c1.245-1.01,2.608-1.961,3.858-3.067
			c2.539-2.165,5.195-4.272,7.446-6.407c1.15-1.041,2.247-2.034,3.261-2.951c0.987-0.944,1.865-1.838,2.65-2.608
			c1.562-1.547,2.681-2.661,3.11-3.114l-0.975,0.534c1.197-1.489,2.294-2.526,3.7-3.947l-1.387,0.829
			c5.87-6.53,8.869-11.293,12.071-16.151c1.511-2.491,3.055-5.034,4.853-7.999c0.852-1.509,1.776-3.118,2.807-4.87
			c0.53-0.868,1.035-1.8,1.553-2.784c0.529-0.978,1.083-2,1.665-3.073c2.315-4.79-1.491,2.552-1.779,2.491
			c0.475-1.388,1.606-3.532,2.654-5.524c0.994-2.018,1.986-3.846,2.394-4.474c-1.345,1.1-4.531,8.623-2.522,2.711
			c2.165-3.845-1.896,2.421,1.425-4.55c0,0,0.136-0.147,0.34-0.369c0.205-0.221,0.481-0.515,0.73-0.822
			c0.513-0.61,1.025-1.22,1.025-1.22c0.712-2.043,0.606-2.315,0.647-2.866c0.021-0.275,0.078-0.62,0.291-1.289
			c0.214-0.669,0.604-1.654,1.151-3.265c2.917-7.243-1.983,9.439,2.192-2.434c1.05-2.985,1.317-6.381,1.941-10.386
			c0.47-4.052,1.177-8.742,2.419-14.669c0.36-2.588,0.227-3.578,0.11-3.795c-0.142-0.222-0.383,0.31-0.584,0.719
			c-0.401,0.817-0.644,1.156,0.389-5.936c0,0-0.454,2.253-0.907,4.505c-0.407,2.256-1.014,4.47-1.014,4.47
			c0.124-2.373-0.553-0.969,0.424-7.054c0.297-0.943,0.767-2.342,1.062-3.94c0.303-1.597,0.577-3.377,0.729-5.045
			c-0.891,6.653-0.954,3.685-1.04,0.642c-0.048-1.524-0.074-3.071-0.281-3.471c-0.178-0.4-0.369,0.356-0.877,3.407
			c0,0,0.097-1.144,0.193-2.288c0.062-0.571,0.06-1.146,0.079-1.576c0.015-0.43,0.024-0.717,0.024-0.717
			c-0.054,0.569-0.155,0.71-0.224,0.404l0.084-6.089c-0.158,1.876-0.317,5.042-0.516,7.213c-0.289,2.168-0.604,3.334-0.813,1.257
			c0,0,0.044-0.546,0.061-1.367c0.003-0.821,0.008-1.917,0.012-3.012c0.009-2.188,0.019-4.377,0.019-4.377
			c-0.621,2.326-0.771-0.871-1.236-0.361c0,0-0.108,1.594-0.271,3.984c-0.083,1.192-0.179,2.583-0.281,4.074
			c-0.178,1.483-0.366,3.065-0.555,4.647c-0.302,3.167-0.941,6.29-1.317,8.638c-0.202,1.172-0.35,2.151-0.522,2.826
			c-0.151,0.677-0.238,1.064-0.238,1.064c0.563-0.913,1.24-4.517,1.397-3.117c-0.108,1.703-0.385,2.874-0.568,3.795
			c-0.201,0.919-0.391,1.578-0.573,2.224c-0.376,1.291-0.638,2.542-1.168,5.693l1.072-2.659c-0.281,0.462-0.536,1.325-0.278-0.045
			c0.109-2.261,0.613-3.161,0.895-3.131c0.277,2.339-1.634,8.573-2.432,10.342c-2.169,7.999,0.527,1.917,0.201,3.722
			c-1.9,3.933-4.237,13.267-6.63,17.889l1.788-2.856c-0.425,1.542-0.849,3.047-1.425,4.421c-0.574,1.375-1.175,2.672-1.769,3.879
			c-1.14,2.439-2.471,4.412-3.402,6.026l1.11-1.057c-4.069,7.845-5.11,12.481-10.288,17.179c0.001,0,0.212-0.139,0.405-0.292
			c0.196-0.15,0.394-0.301,0.394-0.301c-1.927,3.091-4.848,7.853-7.499,10.221c0.116,0.195-0.062,0.847-0.93,2.053
			c-0.858,0.58-1.878,1.605-3.043,3.068c-1.181,1.449-2.528,3.324-4.38,5.286c2.607-2.463,2.486-1.022,5.144-3.75
			c-2.361,3.515-3.978,4.666-5.425,5.701c-0.736,0.508-1.462,0.965-2.304,1.61c-0.854,0.634-1.873,1.408-3.133,2.624
			c-2.745,3.222,3.11-2.202,4.017-2.739c-1.982,1.861-3.977,3.755-5.827,5.75c-1.926,1.923-3.823,3.817-5.631,5.622
			c-1.885,1.723-3.719,3.327-5.477,4.687c-1.791,1.315-3.562,2.31-5.212,2.947l3.469-3.17c-3.744,2.185-5.635,3.536-5.116,3.374
			c1.097-0.852,1.573-0.983,2.071-1.131c-5.052,4.158-9.648,6.513-14.278,8.671c-1.144,0.57-2.329,1.059-3.533,1.557
			c-1.201,0.505-2.417,1.026-3.663,1.583c-1.233,0.585-2.556,1.083-3.909,1.675c-1.356,0.585-2.76,1.226-4.232,1.942
			c1.018-0.091,2.771-0.763,2.961-0.538c-2.672,1.442-4.229,1.551-6.169,1.892c-0.97,0.171-2.04,0.394-3.415,0.837
			c-1.372,0.451-3.102,0.974-5.338,1.933l1.929-0.24c-2.995,1.271-5.444,1.484-5.066,1.221c0.052,0.382-1.163,0.92-3.11,1.573
			c-0.974,0.326-2.13,0.681-3.401,1.059c-1.281,0.339-2.691,0.651-4.143,1.002c-1.457,0.329-2.949,0.744-4.45,1.043
			c-1.501,0.298-2.986,0.611-4.388,0.94c-2.795,0.716-5.304,1.216-6.938,1.948c-0.609-0.028-1.356-0.036-2.204-0.026
			c-0.424,0.008-0.873,0.016-1.343,0.025c-0.472-0.007-0.965-0.015-1.475-0.022c-2.037-0.02-4.333,0.015-6.604,0.074
			c-2.277-0.048-4.528-0.057-6.473-0.016c-1.944,0.082-3.582-0.001-4.629,0.112c-6.044,0.763,5.315,1.143,3.083,1.939
			c-4.762-0.144-7.22-0.885-14.268-1.21c0-0.848,13.907-0.673,0.855-2.149l-1.872,0.316c1.365,0.042,3.237,0.011,5.129,0.266
			c3.761,0.79-2.31,0.396-3.208,0.557c0,0-0.881-0.083-2.203-0.208c-1.32-0.135-3.068-0.431-4.82-0.673
			c-1.748-0.272-3.507-0.465-4.802-0.761c-1.301-0.257-2.168-0.428-2.168-0.428c-0.429-0.536,1.423-0.381,3.487-0.102
			c2.081,0.174,4.383,0.462,4.829,0.404c-1.382-0.152-2.803-0.291-4.251-0.42c-1.446-0.146-2.905-0.383-4.389-0.563
			c-1.48-0.205-2.988-0.356-4.484-0.6c-1.493-0.269-2.99-0.538-4.481-0.807c-3.002-0.477-5.899-1.3-8.711-2.023
			c-1.412-0.347-2.753-0.828-4.062-1.29c-1.307-0.465-2.57-0.94-3.777-1.427l0.82,0.635c-1.551-0.597-2.804-1.145-3.858-1.581
			c-1.057-0.428-1.917-0.739-2.64-0.972c-1.44-0.477-2.35-0.596-3.141-0.787c-1.576-0.376-2.88-0.623-7.353-3.547
			c-5.093-2.344,1.381,1.784-6.214-2.025c-2.095-1.174-0.702-0.785-0.278-0.668c-8.851-5.478-4.484-1.465-12.151-7.339l1.224,1.921
			c-4.684-3.378-9.048-7.391-13.177-11.271c-2.045-1.967-3.98-3.971-5.945-5.793c-1.872-1.926-3.724-3.731-5.575-5.359
			c-0.053,0.468,1.044,1.737,2.323,3.159c1.284,1.417,2.726,3.007,3.489,3.986c-4.518-5.01-10.249-10.611-15.296-16.699
			c-1.334-1.457-2.493-3.05-3.716-4.55c-0.602-0.759-1.198-1.512-1.788-2.256c-0.588-0.746-1.106-1.531-1.648-2.281
			c-1.066-1.514-2.1-2.986-3.057-4.415c-0.896-1.471-1.733-2.888-2.491-4.235c2.509,2.748-1.891-5.653,2.778,0.659
			c0.166,1.095,0.797,2.392,1.831,3.74c1.004,1.37,2.25,2.896,3.42,4.634c-0.558-1.696-1.925-3.919-3.608-6.393
			c-0.794-1.269-1.675-2.595-2.592-3.937c-0.462-0.668-0.93-1.343-1.396-2.017c-0.438-0.692-0.875-1.384-1.308-2.068
			c-0.869-1.37-1.718-2.708-2.511-3.96c-0.759-1.272-1.396-2.495-1.957-3.564c-1.099-2.152-1.785-3.748-1.56-4.424l-1.403-1.315
			c-0.675-1.761-2.117-6.299-0.556-3.413c0,0-0.093-0.188-0.256-0.517c-0.155-0.333-0.416-0.791-0.657-1.371
			c-0.503-1.154-1.173-2.692-1.843-4.231c-0.336-0.771-0.672-1.541-0.987-2.263c-0.28-0.736-0.542-1.422-0.766-2.011
			c-0.446-1.18-0.743-1.966-0.743-1.966c0.768,4.697,3.581,14.442,5.665,16.96c0.881,3.855-2.764-4.853-2.172-1.362
			c-1.364-4.394-1.907-5.666-2.684-6.914c-0.381-0.625-0.794-1.25-1.314-2.277c-0.252-0.517-0.565-1.121-0.852-1.898
			c-0.284-0.779-0.597-1.71-0.945-2.844c1.191,1.855,0.777-0.499,0.153-3.256c-0.345-1.371-0.591-2.892-0.796-4.028
			c-0.194-1.139-0.288-1.91-0.134-1.843c-0.257-0.724-0.537-1.685-0.817-2.759c-0.255-1.081-0.455-2.289-0.663-3.479
			c-0.393-2.387-0.758-4.717-0.764-6.053c-0.212-1.332-0.56-3.081-0.981-5.093c-0.426-2.012-0.726-4.318-1.135-6.715
			c-0.445-2.394-0.603-4.926-0.846-7.383c-0.267-2.458-0.267-4.866-0.232-7.038c-0.101,1.645-0.321,3.78-0.407,5.456
			c-0.11,1.677-0.298,2.907-0.651,2.741c0.015-1.078,0.003-2.178-0.036-3.235c-0.04-1.057-0.016-2.074-0.077-2.98
			c-0.099-1.812-0.334-3.189-0.741-3.592c-0.594,7.672,0.139,8.894,0.696,9.894c0.298,0.503,0.608,0.959,0.851,2.148
			c0.132,0.594,0.201,1.376,0.327,2.433c0.131,1.056,0.25,2.393,0.35,4.115c-0.232,1.745-0.313,3.577-0.073,5.836
			c0.232,2.259,0.47,5,1.211,8.499c-1.236-3.065-1.137-1.621-2.045-2.809c0.079-2.268-0.119-4.797-0.479-7.506
			c-0.263-2.722-0.625-5.635-1.03-8.63c-0.136-1.505-0.274-3.031-0.413-4.563c-0.119-1.534-0.32-3.07-0.322-4.607
			c-0.038-1.535-0.059-3.061-0.05-4.562c0.012-0.75,0.025-1.493,0.037-2.229c0.048-0.735,0.123-1.462,0.197-2.178
			c0.339-2.409,0.785-2.692,1.206-3.735c0.215-0.521,0.404-1.23,0.606-2.481c0.246-1.25,0.496-3.04,0.752-5.73
			c0,0-0.031,2.323-0.062,4.646c-0.04,1.158,0.019,2.32,0.052,3.19c0.033,0.869,0.055,1.449,0.055,1.449
			c-0.034-1.273-0.05-2.267-0.051-3.046c0.011-0.778,0.074-1.339,0.115-1.754c0.095-0.829,0.206-1.065,0.336-1.245
			c0.26-0.358,0.597-0.493,1.018-4.652l-0.867,3.27c0.067-1.282,0.133-2.361,0.205-3.302c0.066-0.941,0.223-1.735,0.337-2.46
			c0.253-1.449,0.541-2.605,0.941-3.982l-1.495,4.191c0.116-1.384,0.307-3.356,0.538-4.981c0.199-1.63,0.615-2.882,0.876-2.873
			c-0.104-0.739-0.243-1.018-0.403-1.045c0.252-0.507,0.583-1.78,1.123-4.989c-0.442,1.854-0.624,3.222-0.91,3.211
			c0.289-1.525,0.514-2.714,0.689-3.641c0.2-0.922,0.323-1.588,0.391-2.073c0.136-0.968,0.055-1.209-0.064-1.306
			c-0.237-0.194-0.625,0.187,0.291-3.577c-0.245,0.57-0.31,0.302-0.25-0.452c0.081-0.749,0.338-1.972,0.659-3.329
			c0.349,0.146,0.886-0.666,1.521-2.014c0.599-1.364,1.413-3.218,2.28-5.195c1.606-3.995,3.729-8.329,4.822-10.042l-0.038,0.036
			c0,0,0.068-0.146,0.187-0.403c0.112-0.259,0.296-0.619,0.525-1.047c0.45-0.858,1.051-2.002,1.651-3.147
			c0.604-1.141,1.187-2.289,1.656-3.134c0.491-0.834,0.818-1.39,0.818-1.39c-1.062,1.803-0.404-0.378,0.826-3.129l-0.215,0.437
			c0.645-1.515-0.162-0.837-0.521-0.847c-0.18-0.005-0.247-0.185,0.039-0.904c0.143-0.359,0.373-0.854,0.721-1.528
			c0.378-0.658,0.888-1.489,1.553-2.538c0,0,0.746-1.074,1.492-2.149c0.372-0.536,0.744-1.072,1.022-1.474
			c0.277-0.403,0.487-0.655,0.487-0.655c-0.548,0.754-0.262-0.117-0.094-0.59l3.238-4.295c0.797-1.93,1.924-3.584,3.054-5.223
			c0.58-0.809,1.167-1.611,1.801-2.383c0.665-0.746,1.333-1.497,2.01-2.256c2.686-3.053,5.731-5.988,8.706-9.788
			c-1.819,2.1-4.606,5.288-3.784,3.6c0.548-0.764,1.317-1.654,2.087-2.471c0.759-0.828,1.606-1.503,2.177-1.963l-0.458,0.237
			c0,0,0.835-0.792,2.088-1.98c0.625-0.593,1.355-1.285,2.137-2.027c0.817-0.704,1.688-1.454,2.559-2.205
			c1.739-1.5,3.46-3.013,4.845-4.039c1.354-1.058,2.257-1.763,2.257-1.763c-0.713,0.307-3.063,2.083-4.753,3.466
			c-1.675,1.398-2.813,2.272-1.342,0.474c0.38-0.591,0.921-1.248,1.595-1.893c0.687-0.631,1.478-1.279,2.297-1.921
			c1.651-1.271,3.356-2.581,4.702-3.546c-0.126,0.534-4.515,4.73,0.322,0.969c0.461-0.61,4.806-4.546,2.465-3.068
			c0.647-0.451,1.332-0.926,2.042-1.42c0.73-0.465,1.488-0.947,2.262-1.439c1.554-0.974,3.131-2.047,4.762-2.999
			c1.643-0.934,3.27-1.847,4.802-2.678c1.512-0.865,3.036-1.472,4.323-2.039c1.454-1.036-1.05,0.214-1.889,0.633l-0.333,0.322
			c-3.342,1.764-1.036-0.576-7.089,3.766c-0.627-0.372,1.592-1.9,4.641-3.796c1.516-0.961,3.335-1.852,5.059-2.82
			c0.865-0.479,1.721-0.954,2.54-1.408c0.836-0.421,1.629-0.833,2.347-1.227c0,0-0.607,0.249-1.517,0.621
			c-0.923,0.35-2.095,0.929-3.286,1.48c-1.19,0.557-2.381,1.114-3.274,1.531c-0.894,0.42-1.489,0.705-1.489,0.705
			c7.094-5.356,16.528-10.084,26.366-13.471c9.837-3.438,20.019-5.526,28.632-6.975c-4.995,1.208-9.22,1.939-8.4,2.76
			c1.327-0.247,2.466-0.458,3.465-0.644c0.996-0.191,1.868-0.274,2.634-0.397c1.537-0.222,2.692-0.404,3.845-0.594
			c0.576-0.097,1.152-0.194,1.774-0.298c0.627-0.074,1.301-0.154,2.069-0.245c1.537-0.172,3.449-0.412,6.12-0.67
			c0,0-0.232-0.004-0.462,0.016c-0.23,0.016-0.461,0.032-0.461,0.032c2.738-0.521,6.036-0.641,9.078-0.764
			c3.052-0.001,5.852-0.058,7.678-0.55c-2.42-0.509-7.886,0.723-8.07-0.409c0,0,3.41-0.064,6.82-0.128
			c1.705-0.062,3.409,0.077,4.687,0.091c1.278,0.041,2.129,0.067,2.129,0.067c-2.13-0.366-5.551-0.581-9.079-0.373
			c-1.764,0.077-3.557,0.122-5.229,0.237c-1.671,0.149-3.227,0.274-4.528,0.333c-3.735,0.361,7.539-0.449,5.794,0.494
			c-3.164,0.159-5.714,0.354-7.87,0.411c-2.153,0.098-3.894,0.252-5.453,0.27c-3.125,0.02-5.46,0.034-8.645,0.053
			c-1.966-0.048-0.627-0.491,1.511-0.977c1.068-0.243,2.334-0.496,3.479-0.716c1.156-0.155,2.189-0.294,2.782-0.374
			c8.284,0.004,20.117-0.268,32.803,0.137c0,0,1.756-0.082,3.513-0.164c0.881-0.046,1.763-0.085,2.421-0.066
			c0.66,0.003,1.1,0.004,1.1,0.004c6.159,1.609,3.314,2.556,14.396,4.468c0,0-0.197-0.085-0.492-0.212
			c-0.293-0.135-0.69-0.291-1.09-0.435c-0.8-0.299-1.599-0.598-1.599-0.598c2.489,0.158,4.084,0.499,5.254,0.766
			c-1.164-0.371-2.337-0.821-3.544-1.148c-1.207-0.341-2.417-0.684-3.614-1.023c-1.202-0.34-2.39-0.677-3.546-1.004
			c-1.168-0.277-2.304-0.546-3.388-0.803c3.317-0.307,7.934,0.677,12.808,2.028c2.419,0.768,4.937,1.502,7.371,2.381
			c2.424,0.915,4.834,1.721,7.076,2.503c-0.402-0.366-3.6-1.27-4.458-1.881c0.858,0.231,1.72,0.462,2.583,0.695
			c0.865,0.226,1.72,0.488,2.562,0.796c1.692,0.586,3.377,1.195,5.049,1.816c1.68,0.598,3.279,1.391,4.893,2.085
			c1.6,0.732,3.207,1.4,4.715,2.228c1.519,0.794,3.016,1.576,4.482,2.343c1.473,0.747,2.836,1.634,4.205,2.405
			c1.353,0.805,2.699,1.525,3.948,2.311c1.248,0.789,2.457,1.539,3.624,2.239c2.142,0.9,0.23-0.307-1.929-1.699
			c-2.131-1.439-4.644-2.821-3.433-2.7c1.252,0.718,2.542,1.458,3.795,2.177c1.266,0.698,2.495,1.376,3.608,1.99
			c2.217,1.246,3.873,2.406,4.318,3.134c-0.768-1.138,2.071,0.582,3.925,1.862c1.825,1.314,2.852,1.942-1.429-1.611
			c8.833,5.579,17.369,12.636,24.887,20.654c7.543,8,14.117,16.876,19.568,25.821c-0.265-1.042-0.032-1.2,0.638-0.579
			c-3.886-5.971-10.002-14.486-12.169-17.894c0.88,0.797,1.742,1.756,2.556,2.756c0.782,1.026,1.487,2.115,2.135,3.111
			c1.279,2.007,2.31,3.659,2.81,4.13c-1.198-2.103-4.202-5.82-3.803-6.253c2.131,2.237,3.636,4.127,4.761,6
			c1.134,1.868,2.055,3.597,3.264,5.39l-1.595-1.749c0.905,1.42,1.611,2.604,2.123,3.644c0.532,1.025,0.938,1.86,1.265,2.568
			c0.647,1.419,0.992,2.32,1.347,3.244c0.332,0.937,0.705,1.875,1.451,3.335c0.746,1.461,1.909,3.42,3.545,6.557
			c2.952,4.257,0.482-0.294,1.194-0.767c1.398,3.039,6.598,12.624,6.933,16.255c0,0-0.808-1.999-1.615-3.997
			c-0.385-1.006-0.837-1.985-1.182-2.716c-0.339-0.734-0.565-1.223-0.565-1.223c2.263,5.593,4.217,10.951,5.229,15.005
			c0.036-0.465,0.102-0.854-0.239-2.088c0.64,2.312,1.497,4.905,2.027,7.291c0.565,2.375,1.088,4.456,1.07,5.718l1.186,1.092
			c-0.469-1.36-1.367-4.066-2.109-6.631c-0.38-1.28-0.666-2.542-0.955-3.549c-0.28-1.01-0.452-1.8-0.447-2.182
			c0.498,0.267,1.393,2.477,2.079,5.139c0.74,2.646,1.506,5.667,1.908,7.523c-0.229-1.021-0.402-1.99-0.625-2.888
			c-0.225-0.897-0.436-1.74-0.634-2.534c-0.388-1.592-0.711-2.997-0.99-4.271c-0.64-2.53-1.143-4.521-1.625-6.432
			c-0.443-1.932-1.082-3.713-1.856-5.872c-0.401-1.073-0.833-2.243-1.391-3.534c-0.595-1.274-1.278-2.684-2.08-4.279l0.735,2.306
			c-0.535-0.975-1.045-1.963-1.534-2.962c-0.481-1.003-0.957-2.008-1.478-2.99c-1.009-1.978-1.932-3.991-2.866-5.965
			c-0.997-1.943-1.979-3.857-2.934-5.717c-0.962-1.86-2.066-3.568-3.104-5.215c1.339,1.745,1.862,1.946,1.433,0.993
			c-4.943-7.095-10.079-13.957-16.017-20.535c-5.91-6.587-12.518-12.992-20.335-18.944c0,0-1.026-1.091-2.052-2.181
			c-0.517-0.544-1.026-1.101-1.423-1.499c-0.404-0.39-0.673-0.65-0.673-0.65l-0.703,0.336c-4.006-2.666-4.293-3.163-4.219-3.44
			c0.06-0.254,0.556-0.385-2.097-2.029c2,1.276,1.576,1.141,1.876,1.562c-9.011-6.732-5.537-2.899-10.84-6.236
			c2.293,1.995,10.124,6.578,7.262,5.871c-1.113-0.828-2.318-1.693-3.577-2.578c-1.267-0.872-2.64-1.674-3.999-2.525
			c-1.377-0.818-2.719-1.728-4.125-2.457c-1.389-0.762-2.75-1.509-4.046-2.221c-0.647-0.36-1.278-0.711-1.888-1.05
			c-0.622-0.316-1.222-0.623-1.796-0.916c-1.146-0.593-2.182-1.151-3.065-1.662c-1.756-1.046-2.948-1.809-3.178-2.332
			c-9.733-3.677-20.864-7.136-31.884-9.355C183.143,1.067,172.298,0.06,163.527,0c-2.387,0.347,1.493,0.188,0.575,0.44
			c-1.729-0.195-4.051-0.214-6.557-0.146c-0.626,0.022-1.265,0.03-1.907,0.077c-0.641,0.062-1.288,0.125-1.933,0.187
			c-1.289,0.139-2.575,0.278-3.809,0.411c-2.468,0.227-4.695,0.679-6.332,0.887c-1.635,0.225-2.673,0.298-2.731,0.092
			c-1.651,0.298-2.777,0.774-3.609,1.125c-0.831,0.365-1.359,0.675-1.783,0.867c-1.105,0.094-2.263,0.21-3.466,0.347
			c-1.199,0.155-2.428,0.4-3.701,0.625c-1.271,0.244-2.577,0.496-3.912,0.752c-1.335,0.261-2.667,0.657-4.035,0.998
			c0,0,1.007-0.225,2.013-0.45c0.503-0.111,1.006-0.223,1.383-0.306c0.382-0.065,0.636-0.109,0.636-0.109l-0.411,0.213
			c0,0-0.361,0.062-0.894,0.187c-0.535,0.12-1.248,0.279-1.961,0.438c-1.429,0.32-2.857,0.639-2.857,0.639l0.194-0.109
			c-0.847,0.227-1.703,0.457-2.565,0.688c-0.85,0.276-1.706,0.554-2.567,0.833c-1.721,0.567-3.47,1.125-5.217,1.727
			c-3.436,1.355-6.978,2.59-10.34,4.149c-6.839,2.87-13.243,6.279-18.968,9.179c6.623-3.263-1.082,1.777,2.089,0.317
			c-3.092,1.112-7.968,3.743-13.131,7.34c-1.325,0.852-2.584,1.873-3.898,2.864c-1.298,1.01-2.639,2.008-3.923,3.077
			c-1.26,1.097-2.521,2.194-3.766,3.277c-0.618,0.546-1.231,1.088-1.838,1.625c-0.581,0.564-1.156,1.123-1.723,1.674
			c0.232,0.17-0.318,1.007,0.905,0.152c0,0-1.417,1.16-2.834,2.319c-0.705,0.585-1.43,1.152-1.942,1.61
			c-0.511,0.46-0.851,0.767-0.851,0.767l0.909-0.463c-1.107,1.205-2.245,2.404-3.4,3.594l-1.742,1.781l-1.676,1.839
			c-1.128,1.215-2.251,2.424-3.36,3.617c-1.063,1.235-2.112,2.455-3.139,3.647c-2.097,2.357-3.893,4.777-5.541,7.002
			c-0.407,0.561-0.805,1.108-1.192,1.642c-0.375,0.542-0.707,1.094-1.039,1.622c-0.657,1.062-1.251,2.074-1.769,3.03
			c3.024-4.432,3.278-4.29,3.97-4.468c-5.255,7.749-9.694,15.395-14.561,25.223c0.318-0.501,0.561-0.81,0.661-0.783
			c-0.526,1.336-1.26,2.737-1.947,4.17c-0.676,1.44-1.357,2.89-1.983,4.222l0.487,0.613c-0.292,0.636-0.585,1.3-0.878,1.986
			c-0.274,0.693-0.523,1.419-0.787,2.157c-0.513,1.482-1.047,3.028-1.592,4.604c-0.556,1.574-0.973,3.226-1.504,4.842
			c-0.487,1.629-1.106,3.223-1.583,4.821c0.034,0.682-0.218,1.992-0.636,3.695c-0.209,0.852-0.46,1.802-0.738,2.821
			c-0.255,1.024-0.486,2.128-0.753,3.266c-1.139,4.54-2.028,9.799-2.317,13.646c-0.436,2.91,1.39-6.299,0.596,1.903
			c-0.777,0.517-0.991,3.197-1.211,5.808c-0.097,2.617-0.195,5.167-0.996,5.479c0,0,0.025,0.455,0.062,1.136
			c0.052,0.682,0.055,1.589,0.169,2.496c0.19,1.81,0.38,3.619,0.38,3.619L0,168.959c0.76,3.065,0.89,5.392,0.773,8.141
			c-0.153,2.748-0.09,5.886,0.706,10.429c0.107-0.508,0.037-1.493,0.209-1.04c0.06,1.493,0.48,3.916,0.622,5.335
			c0.155,1.417,0.099,1.825-0.569-0.766c0.208,1.213,0.542,3.156,0.905,5.271c0.472,2.094,0.982,4.359,1.407,6.245
			c0.409,1.891,0.916,3.354,1.145,3.903c0.242,0.546,0.271,0.16-0.038-1.696c-0.368,0.657-1.534-6.146-2.004-9.072
			c0.334,0.131,0.897,1.992,1.471,4.028c0.6,2.031,1.173,4.25,1.821,5.02c-0.008,0.245,0.143,1.205,0.226,1.907l0.69,0.894
			c1.773,9.034,5.593,17.589,7.607,24.013c0.176,0.133,0.466,0.55,0.871,1.296c0.386,0.756,0.928,1.816,1.647,3.224l-0.699,0.5
			c0,0,1.125,2.184,2.249,4.369c0.555,1.096,1.21,2.137,1.658,2.941c0.46,0.798,0.768,1.33,0.768,1.33s-0.304-1.148-0.607-2.295
			c-0.15-0.571-0.3-1.142-0.412-1.57c-0.118-0.424-0.169-0.72-0.169-0.72c1.353,2.309,2.574,4.461,3.653,6.553
			c1.117,2.069,2.227,3.996,3.238,5.923c0.987,1.943,2.116,3.727,3.202,5.558c0.561,0.906,1.122,1.813,1.688,2.73
			c0.597,0.896,1.248,1.767,1.906,2.657c0.632,0.231,1.586,1.212,2.753,2.637c1.171,1.422,2.646,3.215,4.23,5.14
			c1.534,1.971,3.371,3.902,5.106,5.726c1.716,1.845,3.552,3.367,5.145,4.463c0,0-1.179-1.258-2.359-2.516
			c-0.602-0.615-1.139-1.293-1.565-1.779c-0.419-0.492-0.699-0.82-0.699-0.82c5.034,5.356,8.346,8.071,11.561,10.661
			c0.807,0.646,1.58,1.319,2.425,1.964c0.844,0.647,1.718,1.317,2.66,2.039c0.928,0.74,1.922,1.532,3.019,2.406
			c1.119,0.845,2.343,1.77,3.709,2.802c-1.216-0.798-2.282-1.497-3.242-2.127c-0.96-0.632-1.761-1.27-2.536-1.826
			c-1.538-1.132-2.852-2.099-4.299-3.164c-1.402-1.123-2.943-2.341-4.987-3.923c-1.04-0.771-2.135-1.71-3.402-2.777
			c-1.26-1.074-2.721-2.245-4.329-3.653c1.576,1.45,3.097,2.85,4.576,4.211c1.443,1.399,2.932,2.661,4.365,3.923
			c1.449,1.242,2.786,2.556,4.232,3.697c1.423,1.172,2.825,2.327,4.218,3.475c5.692,4.427,11.439,8.6,18.511,12.047
			c-0.747-0.817-4.03-2.958-0.544-1.353c0.569,0.537,1.653,1.264,2.921,2.044c1.28,0.759,2.785,1.494,4.118,2.193
			c1.338,0.69,2.526,1.307,3.228,1.733c0.712,0.403,0.938,0.619,0.317,0.575c4.571,1.726,5.626,1.41,8.403,2.423
			c0,0,0.919,0.433,2.298,1.082c1.389,0.626,3.204,1.57,5.093,2.331c1.888,0.776,3.775,1.553,5.191,2.136
			c0.709,0.292,1.3,0.539,1.724,0.677c0.421,0.15,0.662,0.235,0.662,0.235l-0.432-0.298c13.545,3.033,26.152,5.505,39.052,6.738
			c12.859,1.187,26.038,0.997,39.702-1.941l-0.613-0.351c0,0,1.747-0.149,3.493-0.298c1.738-0.229,3.476-0.458,3.476-0.458
			c-5.429,0.796,2.187-1.087,2.501-1.569c0,0,0.275-0.047,0.755-0.131c0.483-0.075,1.167-0.204,1.979-0.399
			c1.633-0.368,3.811-0.858,5.989-1.348c2.175-0.513,4.312-1.17,5.937-1.603c1.62-0.451,2.7-0.752,2.7-0.752
			C221.247,317.833,219.942,317.324,215.874,318.887z M17.829,236.504c0,0-0.464-0.941-0.929-1.883
			c-0.241-0.466-0.448-0.949-0.603-1.311c-0.157-0.361-0.262-0.602-0.262-0.602c-0.387-0.75-0.754-1.537-1.063-2.442l1.063,2.442
			c0.481,0.966,0.999,1.754,1.372,2.375C17.77,235.71,17.963,236.182,17.829,236.504z M216.368,9.526
			c1.764,1.016-2.766-0.816-4.107-1.195l6.374,2.257C219.6,10.674,217.283,9.895,216.368,9.526z M22.624,233.83l1.538,1.754
			l0.923,2.782L22.624,233.83z M57.118,279.538l-3.922-4.194l0.427,0.25l3.876,4.149L57.118,279.538z M110.015,316.615
			c-0.342-0.151-0.66-0.284-1.042-0.472C109.319,316.283,109.678,316.447,110.015,316.615c2.093,0.925,3.655,1.292,5.087,1.691
			c1.434,0.4,2.773,0.719,4.421,1.717C114.867,319.656,112.367,317.746,110.015,316.615z M29.106,253.987
			c-0.977-1.727-1.455-2.573-2.283-3.754c0.266,1.041,2,4.67,0.325,2.28c-0.384-0.962-1.471-2.886-2.406-4.614
			c-0.875-1.765-1.574-3.347-1.356-3.527c0.612,1.346,1.247,2.559,1.948,3.579c0.705,1.018,1.391,1.895,1.981,2.655
			C28.496,252.125,29.291,253.177,29.106,253.987z M7.371,120.664l-0.347,1.439l1.905-5.091L7.371,120.664z M16.365,97.126
			c0.979-1.203,2.108-3.618,3.581-6.186c0.698-1.302,1.429-2.668,2.143-4c0.704-1.337,1.507-2.577,2.187-3.714
			c0.071-0.75-0.721-0.051-1.919,1.532c-1.219,1.57-2.627,4.143-4.053,6.944C14.677,98.131,18.011,94.628,16.365,97.126z
			 M60.148,286.846l-0.798-1.358l1.096,0.869l-4.157-4.035c6.13,4.503,9.591,8.828,12.632,11.312
			C66.134,291.629,59.738,284.807,60.148,286.846z M46.153,52.863c0.997-0.897,2.193-1.975,3.417-3.077
			c1.209-1.112,2.557-2.132,3.702-3.075c1.16-0.929,2.177-1.719,2.886-2.215c0.72-0.485,1.146-0.658,1.062-0.423
			c-0.094-0.23-0.559-0.125-1.201,0.229c-0.635,0.361-1.463,0.951-2.335,1.623c-1.73,1.358-3.691,2.99-4.487,3.897
			C48.272,50.876,47.539,51.569,46.153,52.863z M47.282,54.305c-1.429,1.293-2.447,2.361-3.341,3.204
			c-0.89,0.847-1.621,1.5-2.328,2.102c-1.442,1.183-2.66,2.258-4.851,4.307c1.11-1.571,2.074-2.817,2.92-3.756
			c0.878-0.913,1.604-1.548,2.175-1.96c1.141-0.825,1.661-0.756,1.557-0.246c1.902-1.862,2.564-2.7,3.021-3.315
			c0.441-0.629,0.618-1.083,1.556-2.151L47.282,54.305z M39.926,58.533c0,0-0.495,0.622-0.99,1.245
			c-0.466,0.646-0.932,1.291-0.932,1.291c-1.007,1.604-1.413,2.723-2.079,3.873c-0.327,0.58-0.745,1.147-1.29,1.824
			c-0.54,0.681-1.247,1.44-2.23,2.354c0,0,0.334-0.513,0.836-1.283c0.504-0.769,1.155-1.81,1.891-2.789
			c1.436-1.989,2.872-3.979,2.872-3.979C38.444,60.344,39.046,59.491,39.926,58.533z M91.071,18.102l-3.008,1.17
			C90.9,17.854,91.293,17.817,91.071,18.102l2.5-0.964C87.547,20.613,90.576,18.688,91.071,18.102z M50.733,47.331
			c0,0-0.421,0.393-1.052,0.982c-0.604,0.617-1.409,1.44-2.214,2.262c-1.607,1.65-3.213,3.301-3.213,3.301
			c0.351-0.04,1.471-1.137,2.747-2.5C48.283,50.02,49.684,48.356,50.733,47.331z M89.637,19.798
			c-3.468,1.725-12.006,7.081-10.818,6.336c0.125-0.231,0.705-0.709,1.541-1.314c0.859-0.566,1.984-1.241,3.161-1.922
			c1.178-0.68,2.41-1.362,3.488-1.935C88.107,20.429,89.061,20.019,89.637,19.798z M276.114,48.478l-4.118-3.993l2.474,1.415
			L276.114,48.478z M219.506,13.229l1.437,0.2l3.081,1.269L219.506,13.229z M158.831,3.573c0.291-0.155,0.125-0.337-0.396-0.48
			c-0.945-0.035-1.773-0.103-2.172-0.234c0.85-0.024,1.668,0.083,2.172,0.234c2.489,0.104,6.18-0.136,7.87-0.232
			c-0.497-0.161-1.705-0.324-2.975-0.321c-1.27-0.022-2.601-0.029-3.346-0.123c1.417-0.214,3.289-0.333,5.231-0.205
			c1.943,0.126,3.957,0.331,5.675,0.481c1.721,0.117,3.14,0.336,3.919,0.271c0.777-0.053,0.916-0.327,0.041-0.973
			c1.2,0.23,3.848,0.653,5.825,1.042c1.969,0.489,3.27,0.909,1.838,0.929c-1.604-0.278-3.588-0.415-5.729-0.565
			c-2.141-0.144-4.437-0.338-6.693-0.296c-2.254,0.004-4.458-0.022-6.403,0.063C161.743,3.296,160.055,3.435,158.831,3.573
			c-0.284,0.13-0.817,0.24-1.928,0.287C157.223,3.767,157.958,3.67,158.831,3.573z M80.281,27.886
			c-1.992,1.209-2.882,1.697-3.311,1.882c-1.797,0.915-3.182,1.603-2.876,1c4.236-2.472,1.775-0.519,2.876-1
			C78.059,29.192,79.212,28.547,80.281,27.886z M68.27,36.31c0,0,0.392-0.27,0.98-0.675c0.605-0.38,1.413-0.887,2.22-1.395
			c1.611-1.012,3.222-2.023,3.222-2.023l-3.413,1.812c0,0,0.619-0.368,1.547-0.92c0.938-0.537,2.141-1.318,3.417-1.985
			c2.534-1.345,5.068-2.69,5.068-2.69c-2.629,1.974-5.672,3.768-8.07,5.315C70.805,35.234,68.836,36.211,68.27,36.31z
			 M66.437,38.315l-1.577,0.538l2.236-1.039L66.437,38.315l0.36-0.123c0,0-0.641,0.478-1.602,1.196
			c-0.481,0.359-1.042,0.777-1.643,1.226c-0.591,0.461-1.199,0.981-1.819,1.486c-1.236,1.018-2.472,2.036-3.398,2.799
			c-0.94,0.75-1.517,1.307-1.517,1.307s0.555-0.547,1.461-1.285c0.894-0.75,2.086-1.751,3.278-2.752c0.595-0.5,1.191-1,1.749-1.469
			c0.58-0.442,1.121-0.855,1.585-1.208C65.818,38.786,66.437,38.315,66.437,38.315z M5.141,150.099
			c0.787,2.477,1.28-0.341,1.859-4.025c0.329-1.838,0.698-3.897,1.012-5.654c0.294-1.755,0.765-3.167,1.079-3.742
			c-0.269-0.313-0.434-1.705-0.803-1.485c-0.185,0.11-0.421,0.626-0.748,1.886c-0.366,1.254-0.674,3.277-1.057,6.387
			c0.308-5.427,1.028-7.04,1.395-8.136c0.402-1.097,0.529-1.668,0.376-4.994c-0.459,2.559-1.01,5.37-1.549,7.646
			c-0.489,2.285-0.795,4.063-0.898,4.518c0,0,0.177-1.526,0.354-3.052c0.071-0.766,0.223-1.52,0.312-2.089
			c0.095-0.568,0.158-0.947,0.158-0.947c-0.429,0.81-0.768,1.799-0.905,2.912c-0.148,1.111-0.205,2.327-0.239,3.569
			c-0.034,1.242-0.047,2.51-0.109,3.731C5.365,147.85,5.321,149.031,5.141,150.099z M13.623,215.166c0,0,0.159,0.479,0.397,1.196
			c0.236,0.719,0.547,1.678,0.93,2.611c0.729,1.879,1.459,3.759,1.459,3.759s-0.664-1.79-1.327-3.579
			c-0.166-0.447-0.332-0.894-0.487-1.313c-0.135-0.427-0.26-0.825-0.368-1.166c-0.215-0.682-0.359-1.137-0.359-1.137L13.623,215.166
			z M166.05,321.838c-0.285-0.218,2.151-0.595,4.953-0.819c1.404-0.079,2.893-0.276,4.193-0.328c1.3-0.063,2.408-0.04,3.039,0.125
			c-1.295,0.122-2.619,0.246-3.898,0.366c-0.64,0.058-1.269,0.115-1.877,0.17c-0.61,0.027-1.199,0.054-1.757,0.079
			C168.467,321.533,166.714,321.651,166.05,321.838z M247.071,298.725c0,0-0.483,0.292-1.242,0.674
			c-0.752,0.392-1.754,0.913-2.757,1.435c-1.001,0.521-2.002,1.042-2.752,1.432c-0.372,0.201-0.69,0.353-0.917,0.452
			c-0.225,0.103-0.353,0.162-0.353,0.162c0.552-0.812,2.263-1.853,4.34-2.892c1.031-0.533,2.158-1.059,3.224-1.639
			c1.051-0.604,2.068-1.217,2.934-1.824C251.058,296.157,248.075,297.673,247.071,298.725z M290.493,259.573
			c0,0,0.478-0.541,0.954-1.081c0.477-0.542,0.914-1.113,0.914-1.114c0,0-0.161,0.117-0.401,0.291
			c-0.24,0.175-0.557,0.41-0.896,0.626c-0.667,0.439-1.334,0.878-1.334,0.878L290.493,259.573z M286.997,261.837
			c0.377-0.849-0.422-0.104-1.416,0.995c-1.035,1.066-2.31,2.455-2.755,3.021c0,0,1.059-0.988,2.117-1.975
			c0.539-0.487,1.051-0.999,1.423-1.393C286.745,262.096,286.997,261.837,286.997,261.837z M311.76,215.963
			c0,0-0.259,0.894-0.604,1.756c-0.326,0.87-0.652,1.74-0.652,1.74s0.519-0.703,1.038-1.406c0.534-0.7,1.009-1.427,1.009-1.427
			L311.76,215.963z M310.617,221.879c-0.966,0.564-1.445-0.043-4.611,7.901c0.467,0.618,1.429-1.524,0.833,1.733
			c1.319-2.521,2.018-4.763,2.548-6.077c-0.896,1.714-1.576,3.917-2.203,4.208c0.544-1.515,1.174-3.012,1.798-4.346
			C309.628,223.974,310.122,222.75,310.617,221.879c0.323-0.194,0.688-0.565,1.201-1.585
			C311.615,220.246,311.169,220.858,310.617,221.879z M296.79,249.876c-0.556,1.001-0.99,1.899-1.175,2.322l-0.444,0.33
			C295.629,251.418,296.193,250.577,296.79,249.876c0.602-1.104,1.321-2.37,2.067-3.671c0.022-1.103-3.477,3.652-4.587,4.761
			c0.835-1.119,1.679-2.124,2.547-3.253c0.843-1.144,1.788-2.367,2.544-4.077c-0.411,0.325-0.206-0.094-1.461,1.871
			c0,0,0.682-1.082,1.27-2.218c0.61-1.124,1.22-2.247,1.22-2.247c1.806-2.338,2.071-2.277,1.564-1.006
			c-0.253,0.635-0.699,1.571-1.238,2.656c-0.55,1.079-1.145,2.335-1.858,3.513c0.013,0.214-0.1,0.633-0.54,1.591
			C297.911,248.583,297.35,249.195,296.79,249.876z M315.967,213.035l-1.068,2.645c-0.679,1.311-0.597,0.355-0.919,0.78
			C315.091,213.335,316.856,209.329,315.967,213.035z M193.197,320.357c0.917-0.252,0.265-0.35-1.127-0.271
			c-1.396,0.064-3.519,0.385-5.616,0.692c0,0,0.528-0.282,1.057-0.563c0.527-0.278,1.049-0.573,1.049-0.573
			c0.095,0.27,2.229,0.014,4.461-0.324c1.114-0.18,2.254-0.364,3.175-0.513c0.912-0.194,1.605-0.341,1.839-0.391
			C199.665,318.832,196.383,319.33,193.197,320.357z M24.549,241.068c0.044-1.8-5.359-11.208-5.987-13.572
			C20.827,232.68,27.385,243.689,24.549,241.068z M15.91,224.247c-1.084-2.786-1.49-3.541-0.874-3.447
			c-0.16-0.713-0.523-1.591-0.887-2.472c-0.349-0.886-0.649-1.792-0.784-2.516c1.114,2.679,1.607,3.938,1.799,4.993
			C15.378,221.85,15.399,222.644,15.91,224.247c0.273,0.731,0.598,1.553,1.04,2.572C16.407,225.74,16.126,224.948,15.91,224.247z
			 M94.028,307.408c0,0,0.2,0.158,0.499,0.394c0.308,0.221,0.719,0.516,1.129,0.811c0.826,0.589,1.652,1.178,1.652,1.178
			s1.428,0.626,2.856,1.253c0.713,0.314,1.425,0.634,1.977,0.829c0.546,0.209,0.911,0.348,0.911,0.348s-0.577-0.276-1.443-0.69
			c-0.846-0.455-1.975-1.061-3.103-1.667c-1.124-0.607-2.248-1.213-3.091-1.668C94.567,307.753,94.028,307.408,94.028,307.408z
			 M158.256,324.804c-0.247-0.232,1.423-0.306,3.338-0.29c0.958,0.003,1.978,0.05,2.853,0.073c0.874,0.001,1.603,0.024,1.977,0.071
			c-0.233-0.315-1.549-0.334-3.281-0.461c-1.733-0.106-3.886-0.158-5.793-0.238c-0.487-0.069-1.286-0.085-2.504-0.196
			c0.74,0.113,1.567,0.167,2.504,0.196c1.424,0.175,0.418,0.454,0.409,0.663l-1.914,0.122l5.303,0.299L158.256,324.804z
			 M268.202,287.961c2.951-3.186,3.474-3.352,5.732-5.182C273.431,283.607,270.515,286.157,268.202,287.961z M122.899,320.149
			c3.556,0.747,2.768,0.279,1.669-0.188c-0.55-0.231-1.166-0.516-1.353-0.682c-0.186-0.17,0.041-0.165,1.209,0.039
			c0,0-0.23-0.051-0.576-0.127c-0.342-0.091-0.798-0.212-1.254-0.333c-0.913-0.243-1.825-0.486-1.825-0.486
			c1.517,0.265,2.523,0.517,3.253,0.749c0.737,0.202,1.19,0.408,1.585,0.614c0.791,0.414,1.352,0.832,3.48,1.231l-2.848-0.536
			c-2.372,0.038,4.241,1.378,4.681,1.942c-1.679-0.267-4.406-0.949-6.349-1.496C122.628,320.333,121.5,319.791,122.899,320.149z
			 M273.619,283.774c2.426-2.687,3.59-3.604,4.578-4.211c0.99-0.603,1.784-0.905,3.323-2.471c-1.78,2.295-2.834,2.992-3.833,3.664
			C276.668,281.412,275.638,281.984,273.619,283.774z M168.238,327.101l-0.458,0.123c0,0,1.478,0.045,2.955,0.09
			c0.74,0.021,1.479,0.042,2.035,0.057c0.554-0.011,0.924-0.018,0.924-0.018l0.462-0.149c0,0-1.479,0.059-2.96-0.014
			C169.717,327.145,168.238,327.101,168.238,327.101z"/>
		<path fill="#231F20" d="M275.837,273.382c1.133-1.294,1.921-2.103,2.599-2.748C277.628,271.522,276.771,272.442,275.837,273.382z"
			/>
		<path fill="#231F20" d="M14.064,206.702c-0.19-0.108-0.432-0.667-0.704-1.433C13.475,205.342,13.671,205.693,14.064,206.702z"/>
		<path fill="#231F20" d="M11.204,193.484c-0.029-0.17-0.061-0.352-0.087-0.506c-0.006-0.118-0.015-0.288-0.022-0.425
			L11.204,193.484z"/>
		<path fill="#231F20" d="M314.086,113.191c0.235,3.004-0.993-2.64-1.799-4.859C313.09,110.543,313.833,111.25,314.086,113.191z"/>
		<path fill="#231F20" d="M308.327,95.477c0.385,1.376,1.074,3.253,2.022,5.504C309.698,99.592,309.079,98.041,308.327,95.477z"/>
		<path fill="#231F20" d="M313.839,109.659c-0.312-0.853-0.648-1.664-0.991-2.439c-0.326-0.782-0.64-1.534-0.94-2.256
			c-0.597-1.445-1.091-2.789-1.559-3.983c0.485,1.092,0.934,2.102,1.512,3.402c0.283,0.653,0.59,1.383,0.927,2.242
			C313.123,107.484,313.512,108.463,313.839,109.659z"/>
		<path fill="#231F20" d="M280.003,54.211c0.425,0.607,0.995,1.306,1.614,2.014c0.595,0.728,1.218,1.482,1.802,2.148
			c1.162,1.337,2.128,2.362,2.128,2.362c-4.175-4.499-3.92-3.884-2.587-2.037c0.681,0.912,1.606,2.153,2.402,3.219
			c0.816,1.045,1.382,2.009,1.487,2.25c-1.114-1.535-2.041-2.617-2.711-3.542c-0.682-0.916-1.16-1.631-1.562-2.281
			c-0.402-0.649-0.722-1.237-1.098-1.89C281.083,55.82,280.634,55.117,280.003,54.211z"/>
		<path fill="#231F20" d="M268.428,42.783c0.957,0.823,1.881,1.602,2.635,2.167C270.085,44.253,269.233,43.524,268.428,42.783z"/>
		<path fill="#231F20" d="M264.672,40.149c-3.28-2.691-4.122-4.062-5.467-5.527c4.328,2.864,6.448,5.515,9.223,8.161
			c-1.146-0.984-2.266-1.972-3.01-2.549C264.648,39.689,264.276,39.532,264.672,40.149z"/>
		<path fill="#231F20" d="M142.571,8.284c0.961-0.066,3.251-0.361,3.347-0.089c0,0-1.732,0.223-3.464,0.447
			c-0.865,0.12-1.735,0.203-2.378,0.326c-0.644,0.117-1.074,0.194-1.074,0.194C136.216,9.5,141.176,8.44,142.571,8.284z"/>
		<path fill="#231F20" d="M117.002,12.589c-5.358,1.766-2.341,1.515-5.093,2.271l-0.016-1.01L117.002,12.589z"/>
		<path fill="#231F20" d="M118.651,7.039l1.676-0.376c-0.623,0.165-1.233,0.327-1.896,0.503L118.651,7.039z"/>
		<path fill="#231F20" d="M92.377,23.796l3.917-0.806C92.015,24.875,91.552,24.155,92.377,23.796z"/>
		<path fill="#231F20" d="M74.529,35.464c0,0,0.714-0.407,1.429-0.813c0.356-0.203,0.713-0.406,0.98-0.558
			c0.265-0.156,0.452-0.244,0.452-0.244c0,0-0.54,0.342-1.337,0.876c-0.799,0.532-1.865,1.241-2.931,1.95
			c-2.164,1.377-4.199,2.937-4.199,2.937s0.342-0.27,0.855-0.675s1.191-0.955,1.911-1.447C73.11,36.477,74.529,35.464,74.529,35.464
			z"/>
		<path fill="#231F20" d="M54.478,51.501l-0.499,0.789c0,0-0.334,0.288-0.801,0.754c-0.474,0.46-1.105,1.074-1.737,1.688
			c-1.266,1.229-2.531,2.458-2.531,2.458s1.382-1.433,2.764-2.866c0.691-0.716,1.382-1.433,1.9-1.97
			C54.116,51.842,54.478,51.501,54.478,51.501z"/>
		<path fill="#231F20" d="M78.701,295.184c0.372,1.413-8.842-5.227-11.474-7.226c0.619,0.125,1.357,0.554,2.182,1.158
			c0.823,0.607,1.795,1.308,2.795,2.092c1.007,0.774,2.074,1.59,3.158,2.317C76.442,294.259,77.607,294.803,78.701,295.184z"/>
		<path fill="#231F20" d="M269.012,280.432c0,0-2.071,1.727-4.144,3.453c-1.027,0.874-2.14,1.642-2.935,2.265
			c-0.806,0.609-1.344,1.015-1.344,1.015c3.173-2.718,3.632-3.069,4.116-3.418C265.2,283.411,265.747,283.122,269.012,280.432z"/>
	</g>
</g>
<g>
	<g>
		<g>
			<path fill="#FFFFFF" d="M116.362,67.587c0,0.146-0.069,0.534-0.205,1.164c-0.138,0.631-0.274,1.14-0.411,1.527
				c-0.068,0.098-0.189,0.268-0.359,0.51c-0.172,0.243-0.325,0.509-0.462,0.8c-0.274,0-0.582-0.121-0.923-0.364
				c-0.138,0.146-0.275,0.255-0.411,0.328c-0.138,0.072-0.274,0.182-0.41,0.327h0.103c0-0.097,0.033-0.169,0.103-0.218v-0.073
				c0-0.048-0.035-0.097-0.103-0.146c-0.41,0.098-0.735,0.218-0.975,0.364c-0.24,0.146-0.497,0.316-0.771,0.509
				c0-0.146,0-0.278,0-0.4c0-0.12-0.034-0.229-0.102-0.327c-0.344-0.097-0.754-0.315-1.232-0.654
				c-0.479-0.339-0.89-0.655-1.23-0.946c-0.069-0.097-0.104-0.169-0.104-0.218c0-0.047-0.034-0.146-0.103-0.291
				c0.068-0.145,0.103-0.338,0.103-0.582c0-0.242,0.067-0.46,0.205-0.655h-0.205c-0.205,0-0.308-0.073-0.308-0.218
				c0-0.193,0-0.436,0-0.727s0.067-0.557,0.205-0.8c0.068-0.048,0.137-0.06,0.206-0.037c0.067,0.025,0.136-0.011,0.205-0.109
				l0.308-0.363c-0.069-0.097-0.069-0.121,0-0.073c0.067,0.049,0.103-0.048,0.103-0.291c0-0.338-0.068-0.764-0.205-1.272
				c-0.138-0.509-0.326-1.042-0.564-1.6c-0.241-0.557-0.514-1.055-0.821-1.491s-0.633-0.751-0.976-0.946
				c-0.479-0.291-1.128-0.605-1.949-0.945c-0.82-0.338-1.369-0.509-1.643-0.509c-0.343,0-0.445,0.025-0.307,0.073
				c0.136,0.049,0.033,0.073-0.308,0.073c-0.344,0-0.549-0.06-0.616-0.182c-0.068-0.12-0.205-0.206-0.411-0.254
				c-0.068-0.048-0.41-0.072-1.026-0.072c-0.273,0-0.718,0.121-1.334,0.363c-0.615,0.243-1.248,0.521-1.897,0.836
				c-0.651,0.316-1.25,0.618-1.797,0.909c-0.548,0.291-0.855,0.485-0.924,0.582c-0.41,0.485-0.82,1.031-1.231,1.637
				c-0.41,0.607-0.684,1.176-0.82,1.709c-0.274,0.437-0.41,0.898-0.41,1.382c0,0.243,0.016,0.728,0.051,1.455
				c0.033,0.728,0.154,1.358,0.359,1.891c0,0.194,0.137,0.425,0.41,0.691c0.272,0.267,0.444,0.545,0.514,0.836
				c0.205,0.534,0.323,1.164,0.358,1.891c0.033,0.727,0.359,1.382,0.976,1.964c0.342,0.776,0.734,1.636,1.181,2.582
				c0.443,0.945,0.836,1.831,1.18,2.655c0,0.098,0.084,0.218,0.256,0.363c0.171,0.146,0.324,0.316,0.463,0.509
				c0.409,0.825,0.785,1.613,1.129,2.364c0.341,0.752,0.683,1.504,1.025,2.255c0.342,0.752,0.734,1.563,1.181,2.436
				c0.443,0.873,0.975,1.843,1.59,2.91c0.342,0.436,0.668,1.079,0.975,1.927c0.309,0.849,0.581,1.758,0.822,2.728
				c0.238,0.97,0.443,1.916,0.615,2.837c0.17,0.921,0.257,1.746,0.257,2.473c0,0.146-0.069,0.618-0.206,1.418
				c-0.138,0.8-0.343,1.491-0.615,2.073c-0.068,0.146-0.051,0.303,0.051,0.472c0.104,0.171,0.085,0.353-0.051,0.546
				c-0.138,0.485-0.514,1.019-1.128,1.6c-0.616,0.582-1.335,1.067-2.156,1.455c-0.138,0.098-0.358,0.267-0.667,0.509
				c-0.308,0.243-0.633,0.46-0.975,0.655c-0.069,0-0.189,0-0.358,0c-0.173,0-0.326,0.023-0.463,0.072
				c-0.754,0.291-1.677,0.521-2.771,0.691c-1.095,0.169-2.019,0.254-2.771,0.254h-2.258c-0.138,0-0.479-0.061-1.025-0.182
				c-0.549-0.122-1.096-0.267-1.642-0.437c-0.549-0.17-1.096-0.316-1.643-0.437c-0.549-0.121-0.89-0.182-1.026-0.182
				c-0.343,0-0.428,0.037-0.257,0.11c0.171,0.072,0.085,0.109-0.256,0.109c-0.205,0-0.514-0.146-0.924-0.437
				s-0.685-0.533-0.82-0.727c-0.411-0.291-1.165-0.63-2.259-1.019c-1.095-0.388-2.019-0.897-2.771-1.527
				c-0.685-0.533-1.539-1.31-2.565-2.328s-1.642-1.891-1.847-2.618c-0.274-0.291-0.531-0.655-0.771-1.091
				c-0.24-0.437-0.564-0.873-0.975-1.309c0-0.097,0.085-0.206,0.257-0.328c0.17-0.12,0.187-0.229,0.051-0.327
				c-0.069-0.146-0.274-0.315-0.615-0.509c0.205-0.291,0.238-0.691,0.103-1.2c-0.138-0.509-0.205-0.933-0.205-1.272
				c0-0.193-0.103-0.339-0.308-0.437c-0.206-0.097-0.309-0.266-0.309-0.509c0-0.242,0.051-0.388,0.154-0.437
				c0.103-0.048,0.154-0.146,0.154-0.291c0.136,0,0.221,0.062,0.256,0.182c0.033,0.122,0.188,0.231,0.462,0.327
				c0-0.338-0.052-0.69-0.153-1.055c-0.104-0.364-0.052-0.787,0.153-1.272c0.067,0,0.272,0.194,0.615,0.582
				c0.206-0.387,0.239-0.8,0.104-1.236c-0.139-0.437-0.309-0.848-0.514-1.236c0.205,0,0.272-0.061,0.205-0.182
				c-0.068-0.121,0.067-0.182,0.411-0.182c0.341,0,0.478,0.025,0.41,0.073c-0.069,0.049,0,0.073,0.205,0.073
				c0-0.242,0.067-0.473,0.205-0.691c0.137-0.219,0.205-0.473,0.205-0.764c0,0.244-0.051,0.485-0.153,0.728
				c-0.103,0.243-0.087,0.509,0.052,0.8c0.067,0.146,0.136,0.207,0.205,0.182c0.066-0.024,0.136-0.011,0.205,0.036
				c0.205,0.098,0.29,0.364,0.256,0.8c-0.034,0.437,0.222,0.68,0.77,0.728c0.068,0.485,0.273,1.018,0.616,1.6l0.514-0.364
				c0,0.485,0.084,1.031,0.256,1.637c0.17,0.607,0.376,1.2,0.616,1.782c0.239,0.582,0.513,1.104,0.82,1.563
				c0.309,0.462,0.599,0.789,0.873,0.982c0.341,0.243,0.719,0.667,1.129,1.273c0.41,0.607,0.785,0.909,1.129,0.909
				c0.272,0,0.359-0.037,0.256-0.109c-0.103-0.073-0.153-0.157-0.153-0.255c0.205,0.339,0.718,0.691,1.539,1.055
				s1.778,0.69,2.874,0.981c1.093,0.291,2.188,0.534,3.283,0.728c1.094,0.194,2.018,0.291,2.771,0.291
				c0.478,0,0.888-0.048,1.23-0.146l0.514,0.291c0.136-0.097,0.444-0.206,0.923-0.327c0.479-0.121,0.855-0.229,1.129-0.327
				c0.411-0.193,0.855-0.473,1.335-0.836c0.478-0.364,0.82-0.764,1.025-1.2c0.137-0.291,0.206-0.593,0.206-0.909
				c0-0.315,0-0.619,0-0.91c0-0.242-0.035-0.351-0.104-0.327c-0.068,0.025-0.103,0.013-0.103-0.036
				c0.068-0.291,0.119-0.618,0.154-0.982c0.033-0.363-0.018-0.69-0.154-0.981c-0.41-0.97-0.907-2.061-1.487-3.273
				c-0.582-1.211-1.198-2.473-1.847-3.782c-0.651-1.31-1.353-2.606-2.104-3.891c-0.753-1.285-1.506-2.485-2.258-3.601
				c0-0.097-0.308-0.812-0.923-2.146c-0.616-1.333-1.284-2.874-2.002-4.619c-0.719-1.746-1.385-3.479-2.001-5.2
				c-0.615-1.721-0.924-3.019-0.924-3.892c0-0.097,0.052-0.629,0.154-1.6c0.103-0.969,0.257-1.77,0.462-2.4
				c0.136-0.629,0.513-1.418,1.128-2.364c0.616-0.945,1.266-1.83,1.95-2.654c0-0.097-0.052-0.157-0.153-0.182
				c-0.103-0.024-0.154-0.109-0.154-0.255c0.411-0.097,0.803-0.291,1.181-0.582c0.375-0.291,0.7-0.437,0.975-0.437
				c0.342,0,0.41,0.062,0.205,0.182c-0.205,0.122-0.171,0.182,0.103,0.182c0.342,0,0.906-0.279,1.693-0.836
				c0.786-0.557,1.419-0.837,1.898-0.837c1.094-0.048,2.36-0.109,3.798-0.181c1.437-0.073,2.324-0.11,2.667-0.11
				c0.067,0,0.324,0.049,0.771,0.146c0.444,0.098,0.939,0.219,1.487,0.364c0.547,0.146,1.078,0.291,1.592,0.436
				c0.513,0.146,0.939,0.243,1.282,0.291c0.41,0.146,0.957,0.363,1.643,0.654c0.683,0.291,1.333,0.462,1.949,0.509
				c1.163,0.098,2.171,0.619,3.027,1.564c0.854,0.946,1.572,2.025,2.155,3.237c0.58,1.212,1.009,2.425,1.282,3.636
				C116.225,65.891,116.362,66.86,116.362,67.587z"/>
		</g>
		<g>
			<path fill="#FFFFFF" d="M162.643,89.844c0,1.746-0.205,3.408-0.614,4.982c-0.411,1.577-0.856,3.213-1.335,4.91
				c-0.343,1.262-0.89,2.449-1.642,3.564c-0.753,1.116-1.506,2.109-2.258,2.982c-0.479,0.437-0.993,0.885-1.539,1.346
				c-0.548,0.462-1.026,0.885-1.438,1.273c-0.343,0.338-0.89,0.509-1.642,0.509c-0.274,0-1.061-0.207-2.36-0.619
				c-1.3-0.411-2.327-0.836-3.078-1.272c-0.549-0.291-1.027-0.751-1.438-1.382c-0.479-0.873-0.907-1.746-1.282-2.618
				c-0.377-0.873-0.702-1.721-0.976-2.546c-0.479-0.969-0.89-1.975-1.23-3.018c-0.344-1.042-0.719-2.097-1.129-3.165
				c-0.274,0.194-0.583,0.473-0.924,0.837c-0.343,0.363-0.651,0.715-0.924,1.055c-0.139,0.194-0.428,0.425-0.873,0.691
				c-0.445,0.267-0.666,0.594-0.666,0.982c-0.138-0.146-0.292-0.157-0.462-0.037c-0.171,0.122-0.359,0.182-0.564,0.182
				c-1.574,1.358-3.182,2.583-4.823,3.673c-1.643,1.091-3.012,2.218-4.104,3.382c-0.686,0.582-1.643,1.164-2.874,1.746
				c-1.231,0.582-2.224,1.018-2.976,1.309v0.8H117.9c-0.411,0-0.993-0.134-1.745-0.4c-0.754-0.266-1.334-0.546-1.744-0.837
				c-0.344-0.146-0.667-0.424-0.976-0.836c-0.308-0.412-0.667-0.884-1.077-1.418c-0.411-0.533-0.702-1.055-0.872-1.564
				c-0.172-0.509-0.257-0.884-0.257-1.127c0-1.066,0.052-2.364,0.154-3.892c0.103-1.527,0.683-3.055,1.744-4.582
				c1.06-1.527,2.188-2.982,3.387-4.364c1.196-1.382,2.171-2.533,2.925-3.455c0.683-0.969,1.76-2.23,3.232-3.782
				c1.471-1.551,2.925-3.055,4.361-4.51c0.958,0.098,1.812,0.158,2.566,0.182c0.751,0.025,1.675,0.376,2.77,1.055
				c0.548,0.291,0.958,0.716,1.231,1.272c0.273,0.558,0.548,1.08,0.821,1.564c-0.343,0.194-0.633,0.461-0.871,0.8
				c-0.241,0.34-0.601,0.655-1.078,0.946v0.655c-0.89,0.97-1.899,2.085-3.028,3.346c-1.128,1.262-2.275,2.558-3.437,3.891
				c-1.165,1.334-2.173,2.655-3.028,3.964c-0.856,1.309-0.941,2.449-0.256,3.418v0.291c0.341-0.193,0.872-0.557,1.591-1.091
				c0.718-0.533,1.452-1.138,2.206-1.818c0.752-0.679,1.521-1.357,2.309-2.037c0.786-0.678,1.453-1.236,2.001-1.672
				c1.71-1.697,2.787-2.801,3.233-3.31c0.443-0.509,0.854-0.92,1.23-1.236c0.375-0.315,0.838-0.533,1.386-0.655
				c0.547-0.12,1.334-0.182,2.36-0.182c0.41,0,0.752,0.134,1.026,0.4c0.272,0.267,0.58,0.473,0.924,0.618
				c1.367,0.194,2.599,0.606,3.694,1.236c1.094,0.631,1.848,1.625,2.258,2.982c0.41,1.358,0.854,2.534,1.334,3.527
				c0.478,0.994,0.854,1.903,1.129,2.728c0.82-0.775,1.521-1.673,2.104-2.691c0.58-1.019,1.026-2.024,1.334-3.019
				c0.309-0.993,0.599-1.976,0.873-2.946c0.271-0.97,0.443-1.793,0.513-2.473c0.067-0.629,0.052-1.442-0.052-2.437
				c-0.103-0.993-0.153-1.952-0.153-2.873c0-0.339,0.067-0.788,0.205-1.346c0.136-0.557,0.205-1.151,0.205-1.782
				c0,0.146,0.137,0.34,0.411,0.583c0.066,0.146,0.29,0.243,0.667,0.291c0.374,0.049,0.563,0.121,0.563,0.218
				c0.137,0.049,0.222,0.158,0.257,0.328c0.033,0.17,0.188,0.352,0.462,0.545c0.272-0.291,0.58-0.436,0.923-0.436v0.582
				c0.753,0.291,1.471,0.437,2.156,0.437c0.82,1.067,1.487,2.292,2,3.673C162.388,87.553,162.643,88.778,162.643,89.844z"/>
		</g>
		<g>
			<path fill="#FFFFFF" d="M192.301,102.791c-0.548,0.146-0.992,0.328-1.334,0.545c-0.344,0.219-0.754,0.376-1.232,0.473
				c0,0.34,0.376,0.582,1.129,0.727c-0.204,0.194-0.394,0.449-0.564,0.764s-0.358,0.643-0.564,0.981
				c-0.889-0.146-1.557,0.085-2,0.691c-0.446,0.607-0.667,1.2-0.667,1.782c-0.616,0.146-1.249,0.255-1.898,0.327
				c-0.651,0.073-1.353,0.109-2.104,0.109c-0.274,0.097-0.325,0.17-0.153,0.219c0.17,0.048,0.359,0.072,0.564,0.072
				c-0.549,0.048-1.181,0.182-1.899,0.4c-0.718,0.218-1.352,0.351-1.898,0.4v0.218c0,0.097-0.138,0.146-0.41,0.146
				c-0.274,0-0.668-0.073-1.181-0.218s-0.992-0.254-1.437-0.327c-0.445-0.073-0.856-0.085-1.231-0.037
				c-0.377,0.048-0.599,0.242-0.667,0.582l-1.129-1.091c-1.506-0.243-2.616-0.557-3.335-0.946c-0.719-0.388-1.729-1.066-3.027-2.037
				c-0.479-0.193-0.805-0.339-0.975-0.437c-0.172-0.097-0.309-0.242-0.411-0.436c-0.103-0.193-0.273-0.582-0.513-1.164
				c-0.241-0.582-0.564-1.624-0.976-3.127c-0.273-1.455-0.256-2.606,0.052-3.455c0.308-0.848,0.564-1.564,0.77-2.146
				c0.205-0.679,0.649-1.648,1.334-2.91c0.684-1.26,1.402-2.448,2.155-3.563c0.41-0.582,0.889-1.273,1.437-2.073
				c0.547-0.8,1.196-1.636,1.95-2.509c0.342-0.338,0.785-0.751,1.334-1.237c0.547-0.484,0.991-0.969,1.334-1.455
				c0.752-0.484,1.316-0.92,1.693-1.309c0.375-0.388,1.077-0.8,2.104-1.237c0.477-0.146,1.093-0.338,1.847-0.582
				c0.752-0.242,1.06-0.557,0.923-0.945c-0.138,0.049-0.205,0.098-0.205,0.146c0,0.146,0.137,0.218,0.411,0.218
				c0.41,0,0.513-0.036,0.308-0.109s-0.103-0.109,0.309-0.109c0.271,0,0.7,0.121,1.282,0.363c0.581,0.243,1.111,0.413,1.591,0.509
				c0.136,0.34,0.205,0.654,0.205,0.945s0.17,0.437,0.514,0.437c0.409,0,0.546-0.037,0.409-0.109
				c-0.138-0.073-0.034-0.109,0.309-0.109c0.273,0,0.495,0.072,0.667,0.218c0.17,0.146,0.358,0.291,0.564,0.437
				c0,0.727,0.085,1.236,0.257,1.527c0.17,0.291,0.393,0.485,0.667,0.582c0.272,0.098,0.529,0.207,0.77,0.327
				c0.239,0.122,0.358,0.425,0.358,0.91c0,0.098-0.068,0.376-0.204,0.836c-0.139,0.462-0.292,0.995-0.462,1.6
				c-0.173,0.607-0.377,1.213-0.616,1.819c-0.24,0.606-0.462,1.152-0.667,1.637c-0.41,0.582-1.077,1.345-2.001,2.291
				s-1.831,1.807-2.72,2.582c-0.821,0.582-1.711,1.286-2.668,2.109c-0.959,0.825-1.916,1.589-2.874,2.291
				c-0.959,0.704-1.744,1.322-2.359,1.855c-0.616,0.534-0.924,0.897-0.924,1.091c0,0.291,0.359,0.619,1.077,0.982
				c0.719,0.363,1.386,0.643,2.001,0.836c0.342,0.145,0.837,0.218,1.488,0.218c0.649,0,1.145,0,1.488,0
				c0.546,0,1.077-0.097,1.59-0.291c0.514-0.193,1.181-0.169,2.001,0.073c1.369-0.291,2.685-0.582,3.952-0.873
				c1.265-0.291,2.411-0.533,3.438-0.727C191.616,102.694,191.958,102.791,192.301,102.791z"/>
		</g>
		<g>
			<path fill="#FFFFFF" d="M219.598,102.791c-0.549,0.146-0.992,0.328-1.334,0.545c-0.344,0.219-0.754,0.376-1.231,0.473
				c0,0.34,0.375,0.582,1.128,0.727c-0.204,0.194-0.394,0.449-0.564,0.764s-0.358,0.643-0.563,0.981
				c-0.891-0.146-1.558,0.085-2.002,0.691c-0.445,0.607-0.666,1.2-0.666,1.782c-0.616,0.146-1.249,0.255-1.899,0.327
				c-0.651,0.073-1.352,0.109-2.104,0.109c-0.274,0.097-0.325,0.17-0.153,0.219c0.169,0.048,0.358,0.072,0.564,0.072
				c-0.549,0.048-1.181,0.182-1.899,0.4c-0.718,0.218-1.352,0.351-1.897,0.4v0.218c0,0.097-0.139,0.146-0.411,0.146
				c-0.274,0-0.667-0.073-1.181-0.218c-0.513-0.146-0.992-0.254-1.437-0.327c-0.446-0.073-0.856-0.085-1.231-0.037
				c-0.377,0.048-0.6,0.242-0.667,0.582l-1.129-1.091c-1.506-0.243-2.616-0.557-3.335-0.946c-0.719-0.388-1.729-1.066-3.027-2.037
				c-0.479-0.193-0.806-0.339-0.975-0.437c-0.172-0.097-0.309-0.242-0.411-0.436c-0.103-0.193-0.274-0.582-0.513-1.164
				c-0.24-0.582-0.564-1.624-0.975-3.127c-0.275-1.455-0.257-2.606,0.051-3.455c0.308-0.848,0.564-1.564,0.77-2.146
				c0.205-0.679,0.649-1.648,1.334-2.91c0.684-1.26,1.401-2.448,2.155-3.563c0.41-0.582,0.888-1.273,1.437-2.073
				c0.547-0.8,1.196-1.636,1.95-2.509c0.342-0.338,0.786-0.751,1.334-1.237c0.547-0.484,0.991-0.969,1.334-1.455
				c0.752-0.484,1.316-0.92,1.693-1.309c0.375-0.388,1.077-0.8,2.104-1.237c0.478-0.146,1.094-0.338,1.848-0.582
				c0.752-0.242,1.06-0.557,0.924-0.945c-0.138,0.049-0.206,0.098-0.206,0.146c0,0.146,0.137,0.218,0.411,0.218
				c0.41,0,0.513-0.036,0.308-0.109s-0.103-0.109,0.308-0.109c0.272,0,0.701,0.121,1.283,0.363c0.58,0.243,1.111,0.413,1.59,0.509
				c0.137,0.34,0.206,0.654,0.206,0.945s0.17,0.437,0.513,0.437c0.41,0,0.547-0.037,0.41-0.109
				c-0.138-0.073-0.035-0.109,0.309-0.109c0.272,0,0.495,0.072,0.667,0.218c0.17,0.146,0.358,0.291,0.563,0.437
				c0,0.727,0.086,1.236,0.258,1.527c0.169,0.291,0.393,0.485,0.666,0.582c0.273,0.098,0.53,0.207,0.771,0.327
				c0.239,0.122,0.359,0.425,0.359,0.91c0,0.098-0.069,0.376-0.205,0.836c-0.139,0.462-0.292,0.995-0.462,1.6
				c-0.172,0.607-0.377,1.213-0.616,1.819c-0.24,0.606-0.461,1.152-0.667,1.637c-0.41,0.582-1.077,1.345-2.001,2.291
				s-1.832,1.807-2.72,2.582c-0.821,0.582-1.711,1.286-2.668,2.109c-0.959,0.825-1.916,1.589-2.874,2.291
				c-0.959,0.704-1.745,1.322-2.359,1.855c-0.616,0.534-0.924,0.897-0.924,1.091c0,0.291,0.359,0.619,1.077,0.982
				c0.719,0.363,1.386,0.643,2.001,0.836c0.342,0.145,0.837,0.218,1.488,0.218c0.649,0,1.145,0,1.488,0
				c0.546,0,1.077-0.097,1.59-0.291c0.514-0.193,1.181-0.169,2.001,0.073c1.369-0.291,2.685-0.582,3.952-0.873
				c1.265-0.291,2.411-0.533,3.438-0.727C218.913,102.694,219.255,102.791,219.598,102.791z"/>
		</g>
		<g>
			<path fill="#FFFFFF" d="M259.004,83.734c0,0.146-0.087,0.267-0.257,0.363c-0.172,0.098-0.359,0.219-0.564,0.364
				c0,0.194,0.17,0.291,0.513,0.291c-0.138,0.34-0.343,0.534-0.615,0.582c-0.273,0.049-0.138,0.243,0.41,0.582
				c-0.548,0.194-1.146,0.389-1.795,0.582c-0.652,0.194-1.217,0.389-1.693,0.582c0,0.146,0.085,0.254,0.257,0.327
				c0.17,0.073,0.358,0.158,0.564,0.254c-0.345,0.631-1.045,1.067-2.104,1.31c-1.062,0.243-2.104,0.436-3.131,0.582
				c-0.205,0.243-0.563,0.582-1.077,1.019c-0.513,0.436-0.94,0.655-1.282,0.655c-0.274,0-0.343-0.037-0.205-0.109
				c0.136-0.073,0.102-0.157-0.104-0.254c-0.273,0-0.409,0.218-0.409,0.655c-1.027,0.146-2.156,0.375-3.387,0.69
				c-1.232,0.316-2.463,0.619-3.695,0.91c-0.138,0.049-0.171,0.109-0.103,0.182c0.067,0.073,0.103,0.158,0.103,0.254
				c-0.138,0-0.205-0.024-0.205-0.073c0-0.048-0.205-0.072-0.616-0.072c-0.204,0-0.839,0.134-1.897,0.4
				c-1.062,0.267-2.002,0.521-2.822,0.764c-0.069,0.049-0.189,0.158-0.36,0.327c-0.171,0.17-0.324,0.353-0.461,0.545
				c-0.479,0.049-0.992,0.207-1.539,0.473c-0.549,0.267-1.027,0.498-1.437,0.691c-0.205,0.582-0.429,1.285-0.668,2.109
				c-0.24,0.825-0.445,1.612-0.615,2.364c-0.172,0.752-0.325,1.407-0.462,1.963c-0.138,0.559-0.205,0.91-0.205,1.055
				c0,0.145,0.033,0.389,0.103,0.727c0.067,0.34,0.17,0.716,0.308,1.127c0.137,0.413,0.272,0.789,0.411,1.127
				c0.136,0.34,0.205,0.558,0.205,0.654c0,0.243-0.205,0.498-0.616,0.764c-0.41,0.267-0.615,0.57-0.615,0.909
				c-0.138,0-0.377,0.023-0.719,0.072c-0.343,0.048-0.651,0.073-0.923,0.073c-0.344,0-0.583-0.158-0.719-0.473
				c-0.139-0.314-0.309-0.545-0.514-0.691c-1.574-1.018-2.429-1.987-2.565-2.909c-0.138-0.92-0.308-1.843-0.513-2.764
				c-0.205-0.533-0.189-1.466,0.051-2.8c0.239-1.333,0.324-2.896,0.257-4.691c0-0.097-0.172-0.314-0.513-0.654
				c-0.344-0.339-0.685-0.691-1.027-1.055s-0.65-0.691-0.923-0.982c-0.274-0.291-0.41-0.509-0.41-0.655
				c0-0.193,0.084-0.593,0.256-1.2c0.17-0.605,0.257-1.175,0.257-1.709c0.341-0.242,0.513-0.411,0.513-0.509
				c0.206-0.047,0.394-0.109,0.564-0.182c0.17-0.073,0.394-0.109,0.667-0.109c0.411,0,0.564,0.036,0.463,0.109
				c-0.104,0.072,0.051,0.109,0.461,0.109c0.272,0,0.564-0.121,0.873-0.364c0.308-0.242,0.495-0.484,0.563-0.728
				c0.272-0.533,0.564-1.32,0.872-2.363c0.309-1.042,0.599-2.157,0.872-3.346c0.273-1.188,0.564-2.364,0.873-3.528
				c0.308-1.164,0.598-2.133,0.872-2.909c0.547-1.6,1.181-3.211,1.898-4.837c0.718-1.624,1.386-3.26,2.002-4.909
				c0.272-0.775,0.598-1.637,0.975-2.583c0.375-0.945,0.804-1.878,1.283-2.8c0.341-0.727,0.648-1.587,0.924-2.582
				c0.271-0.994,0.923-1.733,1.949-2.219c0.205-0.146,0.514-0.266,0.923-0.364c0.411-0.097,0.684-0.146,0.821-0.146
				c0.411,0,0.804,0.194,1.181,0.582c0.375,0.389,0.734,0.582,1.077,0.582c0.342,0,0.564-0.011,0.668-0.036
				c0.102-0.024,0.256-0.036,0.461-0.036l-0.308,0.072v0.364c0,0.146,0.103,0.389,0.308,0.728c0.205,0.34,0.444,0.68,0.718,1.018
				c0.273,0.34,0.496,0.68,0.668,1.019c0.17,0.34,0.256,0.582,0.256,0.727c0,0.194-0.119,0.631-0.359,1.31
				c-0.239,0.679-0.53,1.261-0.872,1.746c0.206,0.485,0.308,0.898,0.308,1.236c-1.025,2.473-2.069,4.91-3.129,7.31
				c-1.062,2.4-2.104,4.74-3.13,7.019c-0.206,0.971-0.498,2.013-0.873,3.128c-0.377,1.116-0.77,2.207-1.181,3.273v0.364
				c0.342,0.145,0.65,0.207,0.925,0.182c0.272-0.023,0.649-0.037,1.129-0.037c0.546-0.145,1.265-0.218,2.154-0.218
				c0.342,0,0.479,0.061,0.411,0.182c-0.069,0.121,0.102,0.181,0.513,0.181c0.342,0,0.734-0.06,1.181-0.181
				c0.443-0.121,0.906-0.206,1.386-0.255c2.324-0.291,4.805-0.521,7.439-0.691C252.862,84.11,255.787,83.929,259.004,83.734z"/>
		</g>
	</g>
	<g>
		<g>
			<path fill="#FFFFFF" d="M141.644,139.021c-0.479,0.146-1.113,0.316-1.898,0.509c-0.788,0.194-1.524,0.376-2.207,0.545
				c-0.686,0.171-1.318,0.316-1.899,0.437c-0.581,0.122-0.94,0.182-1.077,0.182c-0.343,0-0.513-0.06-0.513-0.182
				c0-0.12-0.138-0.182-0.411-0.182s-0.753,0.134-1.436,0.4c-0.686,0.267-1.268,0.4-1.745,0.4c-3.012,0.243-5.765,0.498-8.261,0.764
				c-2.499,0.267-5.047,0.667-7.646,1.2c-0.138,0.776-0.273,1.649-0.41,2.619c-0.138,0.971-0.343,1.916-0.615,2.836
				c-0.205,0.34-0.395,0.776-0.564,1.309c-0.172,0.535-0.326,0.995-0.462,1.382c-0.274,0.825-0.549,1.612-0.821,2.364
				c-0.274,0.752-0.479,1.516-0.615,2.291c-0.205,0.825-0.498,1.758-0.873,2.8c-0.376,1.043-0.718,2.134-1.025,3.273
				c-0.309,1.14-0.564,2.243-0.77,3.31c-0.206,1.067-0.309,2.013-0.309,2.836l-4.207,20.002c-0.479,0.098-0.873,0.254-1.181,0.473
				s-0.564,0.4-0.77,0.545l-0.513-0.364c-0.344,0.242-0.6,0.484-0.77,0.727c-0.173,0.242-0.463,0.364-0.873,0.364
				c-0.274,0-0.89-0.268-1.848-0.8c-0.958-0.533-1.813-1.019-2.564-1.455c0.272-0.291,0.615-0.569,1.025-0.836
				c0.411-0.266,0.616-0.521,0.616-0.764c0.136-1.406,0.257-2.788,0.359-4.146c0.103-1.357,0.221-2.739,0.358-4.146
				c0.067-0.582,0.104-1.297,0.104-2.146c0-0.848,0.033-1.684,0.102-2.51c0.411-2.812,0.873-5.661,1.387-8.546
				c0.513-2.884,1.008-5.757,1.487-8.619l3.694-11.419c-0.549,0-1.113,0-1.693,0c-0.582,0-1.215,0.025-1.898,0.073
				c-0.548,0.049-1.317,0.134-2.309,0.254c-0.992,0.121-2.088,0.254-3.284,0.4c-1.197,0.146-2.412,0.291-3.644,0.437
				c-1.231,0.145-2.36,0.243-3.387,0.291c-0.138,0-0.307-0.011-0.513-0.036c-0.205-0.024-0.513-0.036-0.924-0.036l-0.41,0.363
				c-0.616-0.146-1.352-0.157-2.206-0.037c-0.856,0.122-1.488,0.182-1.898,0.182c-0.139,0-0.446-0.072-0.924-0.218
				c-0.479-0.146-0.975-0.315-1.488-0.509c-0.514-0.193-0.992-0.412-1.438-0.655c-0.445-0.242-0.804-0.412-1.077-0.509
				c-0.548-0.338-1.01-0.751-1.385-1.236c-0.377-0.484-0.736-0.945-1.078-1.382c-0.343-0.484-0.513-1.03-0.513-1.637
				c0-0.605-0.104-1.151-0.309-1.637c0-0.097,0.052-0.242,0.155-0.436c0.102-0.193,0.323-0.291,0.666-0.291
				c0.342,0,0.906,0.049,1.693,0.146c0.786,0.098,1.283,0.146,1.488,0.146c0.752,0,1.438-0.048,2.053-0.146
				c0.615-0.097,1.06-0.266,1.334-0.509l0.103,0.073c0,0.098,0.067,0.146,0.205,0.146c0.41,0.098,0.837,0.146,1.283,0.146
				c0.443,0,0.872,0.049,1.282,0.146l23.193-2.11c0.889-0.096,1.847-0.146,2.873-0.146c1.025,0,1.95,0,2.771,0v-0.218
				c0-0.097,0.17-0.146,0.514-0.146c2.53,0,4.788,0,6.773,0c1.983,0,3.984,0.049,6.003,0.146c2.018,0.098,4.19,0.268,6.517,0.509
				c2.325,0.243,5.096,0.607,8.312,1.091c-0.274,0.194-0.24,0.364,0.103,0.509c0.067,0.146-0.205,0.389-0.82,0.728
				c0.136,0.098,0.289,0.218,0.461,0.363C141.25,138.876,141.438,138.974,141.644,139.021z"/>
		</g>
		<g>
			<path fill="#FFFFFF" d="M145.849,171.534c0,2.667-1.3,5.31-3.899,7.928c-2.601,2.618-5.782,5.091-9.543,7.418
				c-0.206,0.098-0.36,0.267-0.463,0.509c-0.102,0.243-0.223,0.437-0.359,0.582c-2.326,1.018-4.447,1.527-6.361,1.527
				c-1.575,0-2.858-0.279-3.85-0.836c-0.992-0.557-2.001-1.127-3.027-1.709c-0.343-0.193-0.666-0.606-0.975-1.237
				c-0.308-0.63-0.771-0.945-1.385-0.945c-0.139-0.437-0.309-0.982-0.514-1.637c-0.205-0.655-0.308-1.079-0.308-1.273
				c0-0.775,0.221-1.709,0.667-2.8c0.444-1.091,0.939-2.146,1.487-3.165c0.547-1.018,1.078-1.915,1.591-2.691
				c0.514-0.775,0.906-1.309,1.181-1.6c0.137-0.097,0.205-0.278,0.205-0.545c0-0.266,0.103-0.473,0.308-0.618
				c0.342-0.437,0.752-0.873,1.232-1.309c0.478-0.437,0.854-0.873,1.128-1.309c0.205-0.097,0.341-0.146,0.41-0.146
				c0.068,0,0.206-0.024,0.411-0.073c0.205-0.048,0.309-0.157,0.309-0.327s0.102-0.352,0.307-0.546
				c0.273-0.339,0.684-0.618,1.231-0.836c0.547-0.218,0.991-0.497,1.335-0.836c0.205-0.193,0.308-0.424,0.308-0.691
				c0-0.266,0.103-0.521,0.308-0.764c-0.138,0-0.343-0.037-0.615-0.109c-0.275-0.073-0.514,0.012-0.719,0.254
				c0-0.193-0.069-0.339-0.205-0.437c-0.206,0.098-0.308,0.291-0.308,0.582c0-0.339-0.241-0.509-0.719-0.509l0.206-0.073
				c0.066,0,0.205-0.073,0.409-0.218c-0.138-0.679,0.119-1.26,0.77-1.746c0.649-0.484,1.438-0.909,2.361-1.272
				c0.924-0.364,1.829-0.655,2.719-0.873c0.889-0.218,1.471-0.424,1.745-0.618c0.272,0.389,0.616,0.545,1.026,0.473
				s0.888-0.011,1.437,0.182c0.272,0.146,0.752,0.461,1.437,0.945c0.684,0.485,1.265,0.898,1.745,1.236
				c0,0.049,0.067,0.146,0.205,0.291c0.136,0.243,0.272,0.413,0.41,0.509c0.137,0.049,0.308,0.073,0.513,0.073
				s0.376,0.049,0.514,0.146c1.573,1.552,2.855,3.067,3.848,4.546C145.352,168.468,145.849,169.983,145.849,171.534z
				 M137.332,169.207c0-0.291-0.138-0.715-0.41-1.273c-0.274-0.557-0.548-1.03-0.821-1.418c-0.548,0.776-1.301,1.589-2.257,2.437
				c-0.96,0.849-1.678,1.54-2.156,2.073c-0.548,0.727-1.197,1.6-1.949,2.618c-0.754,1.018-1.472,2-2.155,2.946
				c-0.685,0.946-1.249,1.795-1.693,2.546c-0.445,0.752-0.666,1.176-0.666,1.272v0.655c0.682-0.339,1.469-0.788,2.359-1.346
				c0.889-0.557,1.471-0.836,1.745-0.836c0.341,0,0.375,0.072,0.102,0.218s-0.205,0.219,0.206,0.219
				c0.272,0,0.684-0.254,1.231-0.764c0.546-0.509,1.094-1.066,1.642-1.673c0.547-0.605,1.077-1.175,1.591-1.709
				c0.514-0.533,0.804-0.848,0.872-0.945c0.137-0.146,0.342-0.484,0.616-1.019c0.272-0.533,0.546-1.091,0.82-1.672
				c0.272-0.582,0.496-1.103,0.668-1.563C137.246,169.51,137.332,169.255,137.332,169.207z M134.971,165.934v-1.091h-0.513v1.091
				H134.971z"/>
		</g>
		<g>
			<path fill="#FFFFFF" d="M175.815,171.534c0,2.667-1.301,5.31-3.9,7.928c-2.601,2.618-5.781,5.091-9.543,7.418
				c-0.206,0.098-0.36,0.267-0.462,0.509c-0.103,0.243-0.224,0.437-0.359,0.582c-2.326,1.018-4.448,1.527-6.362,1.527
				c-1.575,0-2.858-0.279-3.849-0.836c-0.993-0.557-2.001-1.127-3.028-1.709c-0.343-0.193-0.666-0.606-0.975-1.237
				c-0.308-0.63-0.77-0.945-1.385-0.945c-0.139-0.437-0.309-0.982-0.514-1.637c-0.205-0.655-0.308-1.079-0.308-1.273
				c0-0.775,0.222-1.709,0.667-2.8c0.444-1.091,0.939-2.146,1.488-3.165c0.547-1.018,1.077-1.915,1.591-2.691
				c0.513-0.775,0.905-1.309,1.18-1.6c0.137-0.097,0.205-0.278,0.205-0.545c0-0.266,0.103-0.473,0.309-0.618
				c0.341-0.437,0.752-0.873,1.231-1.309c0.478-0.437,0.854-0.873,1.129-1.309c0.204-0.097,0.341-0.146,0.409-0.146
				s0.206-0.024,0.411-0.073c0.205-0.048,0.309-0.157,0.309-0.327s0.103-0.352,0.308-0.546c0.272-0.339,0.683-0.618,1.231-0.836
				c0.547-0.218,0.99-0.497,1.333-0.836c0.206-0.193,0.309-0.424,0.309-0.691c0-0.266,0.103-0.521,0.308-0.764
				c-0.138,0-0.343-0.037-0.616-0.109c-0.273-0.073-0.513,0.012-0.718,0.254c0-0.193-0.068-0.339-0.205-0.437
				c-0.205,0.098-0.308,0.291-0.308,0.582c0-0.339-0.241-0.509-0.719-0.509l0.206-0.073c0.066,0,0.205-0.073,0.41-0.218
				c-0.139-0.679,0.118-1.26,0.77-1.746c0.649-0.484,1.437-0.909,2.36-1.272c0.923-0.364,1.829-0.655,2.719-0.873
				c0.89-0.218,1.471-0.424,1.745-0.618c0.272,0.389,0.615,0.545,1.026,0.473s0.888-0.011,1.437,0.182
				c0.273,0.146,0.752,0.461,1.437,0.945c0.684,0.485,1.266,0.898,1.744,1.236c0,0.049,0.068,0.146,0.206,0.291
				c0.137,0.243,0.272,0.413,0.41,0.509c0.137,0.049,0.308,0.073,0.514,0.073c0.205,0,0.375,0.049,0.513,0.146
				c1.573,1.552,2.856,3.067,3.849,4.546C175.318,168.468,175.815,169.983,175.815,171.534z M167.296,169.207
				c0-0.291-0.138-0.715-0.41-1.273c-0.273-0.557-0.548-1.03-0.82-1.418c-0.549,0.776-1.301,1.589-2.259,2.437
				c-0.958,0.849-1.677,1.54-2.155,2.073c-0.548,0.727-1.197,1.6-1.949,2.618c-0.753,1.018-1.472,2-2.155,2.946
				c-0.685,0.946-1.249,1.795-1.693,2.546c-0.445,0.752-0.666,1.176-0.666,1.272v0.655c0.683-0.339,1.47-0.788,2.359-1.346
				c0.889-0.557,1.471-0.836,1.745-0.836c0.342,0,0.375,0.072,0.103,0.218c-0.274,0.146-0.205,0.219,0.205,0.219
				c0.272,0,0.684-0.254,1.231-0.764c0.547-0.509,1.094-1.066,1.643-1.673c0.547-0.605,1.077-1.175,1.591-1.709
				c0.513-0.533,0.803-0.848,0.872-0.945c0.136-0.146,0.341-0.484,0.615-1.019c0.272-0.533,0.547-1.091,0.821-1.672
				c0.272-0.582,0.495-1.103,0.667-1.563C167.21,169.51,167.296,169.255,167.296,169.207z M164.937,165.934v-1.091h-0.513v1.091
				H164.937z"/>
		</g>
		<g>
			<path fill="#FFFFFF" d="M217.888,163.242c0,0.146-0.087,0.267-0.257,0.364c-0.172,0.098-0.358,0.218-0.564,0.363
				c0,0.194,0.17,0.291,0.513,0.291c-0.138,0.34-0.343,0.534-0.614,0.582c-0.274,0.049-0.139,0.243,0.409,0.582
				c-0.548,0.194-1.146,0.389-1.795,0.582c-0.651,0.194-1.217,0.389-1.693,0.582c0,0.146,0.085,0.255,0.257,0.327
				c0.17,0.073,0.358,0.158,0.564,0.255c-0.345,0.631-1.044,1.067-2.104,1.31c-1.062,0.243-2.104,0.436-3.13,0.582
				c-0.206,0.243-0.564,0.582-1.078,1.019c-0.513,0.436-0.94,0.654-1.282,0.654c-0.274,0-0.343-0.037-0.205-0.109
				c0.137-0.073,0.103-0.157-0.103-0.254c-0.274,0-0.41,0.218-0.41,0.654c-1.026,0.146-2.156,0.376-3.387,0.691
				c-1.231,0.316-2.463,0.618-3.695,0.909c-0.138,0.049-0.171,0.109-0.103,0.182c0.067,0.073,0.103,0.158,0.103,0.254
				c-0.138,0-0.205-0.023-0.205-0.072c0-0.048-0.205-0.073-0.615-0.073c-0.205,0-0.839,0.134-1.898,0.4
				c-1.062,0.267-2.001,0.521-2.822,0.764c-0.069,0.049-0.188,0.158-0.359,0.327c-0.172,0.171-0.325,0.353-0.462,0.545
				c-0.479,0.049-0.992,0.208-1.539,0.473c-0.549,0.267-1.026,0.498-1.437,0.691c-0.205,0.582-0.429,1.285-0.668,2.109
				c-0.239,0.825-0.444,1.613-0.615,2.364c-0.171,0.752-0.325,1.407-0.462,1.964c-0.138,0.558-0.205,0.91-0.205,1.055
				c0,0.145,0.033,0.389,0.103,0.727c0.067,0.34,0.17,0.716,0.309,1.127c0.136,0.412,0.271,0.789,0.41,1.127
				c0.136,0.34,0.205,0.558,0.205,0.655c0,0.243-0.205,0.498-0.615,0.764c-0.411,0.267-0.616,0.57-0.616,0.909
				c-0.138,0-0.377,0.024-0.719,0.073c-0.343,0.048-0.651,0.073-0.923,0.073c-0.344,0-0.583-0.158-0.719-0.473
				c-0.139-0.315-0.309-0.546-0.514-0.691c-1.574-1.018-2.429-1.987-2.565-2.909c-0.138-0.92-0.308-1.842-0.513-2.764
				c-0.205-0.533-0.188-1.466,0.051-2.8c0.239-1.333,0.324-2.897,0.257-4.691c0-0.097-0.172-0.314-0.513-0.654
				c-0.343-0.339-0.685-0.691-1.026-1.055c-0.344-0.364-0.651-0.691-0.924-0.982c-0.274-0.291-0.41-0.509-0.41-0.654
				c0-0.193,0.084-0.594,0.256-1.2c0.17-0.606,0.257-1.175,0.257-1.709c0.342-0.242,0.514-0.412,0.514-0.51
				c0.205-0.047,0.393-0.109,0.564-0.182c0.17-0.073,0.393-0.109,0.666-0.109c0.411,0,0.565,0.036,0.463,0.109
				c-0.104,0.073,0.051,0.109,0.461,0.109c0.273,0,0.564-0.121,0.873-0.364c0.308-0.242,0.495-0.484,0.564-0.728
				c0.272-0.533,0.564-1.32,0.872-2.364c0.308-1.042,0.598-2.157,0.872-3.346c0.272-1.188,0.564-2.364,0.872-3.528
				c0.309-1.164,0.598-2.133,0.872-2.909c0.548-1.6,1.181-3.212,1.898-4.837c0.719-1.624,1.386-3.261,2.002-4.91
				c0.272-0.775,0.598-1.637,0.975-2.582c0.376-0.946,0.804-1.878,1.283-2.8c0.341-0.727,0.649-1.587,0.924-2.582
				c0.271-0.993,0.923-1.733,1.949-2.218c0.205-0.146,0.514-0.266,0.923-0.364c0.411-0.097,0.684-0.146,0.822-0.146
				c0.41,0,0.803,0.194,1.18,0.582c0.375,0.389,0.734,0.582,1.077,0.582c0.342,0,0.564-0.011,0.668-0.037
				c0.103-0.023,0.256-0.036,0.461-0.036l-0.308,0.072v0.363c0,0.146,0.103,0.389,0.308,0.728c0.206,0.34,0.444,0.68,0.719,1.019
				c0.272,0.34,0.495,0.68,0.667,1.019c0.17,0.34,0.257,0.582,0.257,0.727c0,0.194-0.12,0.631-0.359,1.31
				c-0.24,0.679-0.53,1.261-0.872,1.746c0.205,0.485,0.308,0.897,0.308,1.236c-1.026,2.473-2.07,4.91-3.13,7.31
				c-1.062,2.4-2.104,4.74-3.13,7.019c-0.205,0.971-0.497,2.012-0.873,3.128s-0.77,2.207-1.18,3.272v0.364
				c0.342,0.145,0.65,0.207,0.924,0.182c0.272-0.024,0.649-0.037,1.129-0.037c0.547-0.145,1.265-0.218,2.155-0.218
				c0.341,0,0.478,0.062,0.41,0.182c-0.069,0.122,0.103,0.182,0.513,0.182c0.342,0,0.734-0.06,1.181-0.182
				c0.444-0.121,0.906-0.206,1.386-0.254c2.324-0.291,4.806-0.521,7.439-0.691C211.747,163.618,214.672,163.437,217.888,163.242z"/>
		</g>
		<g>
			<path fill="#FFFFFF" d="M251.343,180.844c-0.685,0.485-1.813,1.043-3.387,1.673v0.146c0,0.049,0.067,0.098,0.205,0.146
				c0.411-0.193,0.837-0.302,1.283-0.328c0.443-0.023,0.872-0.109,1.282-0.254c-0.41,0.146-0.719,0.437-0.924,0.873
				c-0.205,0.437-0.479,0.776-0.82,1.019c-0.274,0.194-0.616,0.34-1.026,0.436c-0.41,0.098-0.718,0.291-0.923,0.582
				c-0.206,0.098-0.326,0.291-0.359,0.582c-0.036,0.291-0.121,0.534-0.258,0.727c-0.41,0.146-0.82,0.4-1.23,0.764
				c-0.411,0.364-0.993,0.74-1.744,1.127c0.271,0.194,0.477,0.291,0.615,0.291c-0.41,0.146-1.011,0.4-1.797,0.764
				c-0.786,0.364-1.385,0.545-1.795,0.545c-0.343,0-0.925-0.036-1.745-0.109c-0.821-0.072-1.437-0.109-1.847-0.109
				c-0.068,0-0.309-0.085-0.719-0.254c-0.41-0.171-0.82-0.353-1.231-0.546c-0.411-0.194-0.805-0.388-1.181-0.582
				c-0.376-0.193-0.633-0.314-0.77-0.363c-0.138-0.193-0.308-0.46-0.513-0.8c-0.205-0.339-0.446-0.63-0.718-0.873
				c-0.138-0.291-0.396-0.618-0.771-0.981c-0.377-0.364-0.667-0.691-0.872-0.982c-0.754-1.6-1.164-3.175-1.231-4.728
				c-0.069-0.775-0.087-1.539-0.052-2.291c0.034-0.751,0.154-1.539,0.359-2.364l-0.205-1.018c-2.942,1.357-5.541,3.54-7.8,6.546
				c-2.257,3.007-4.72,5.358-7.389,7.055v0.073c0,0.049,0.103,0.073,0.308,0.073c-0.205,0-0.291-0.011-0.256-0.037
				c0.033-0.023-0.12-0.036-0.462-0.036c-0.274,0-0.616,0.085-1.026,0.255s-0.856,0.352-1.334,0.545
				c-0.274-0.388-0.563-0.728-0.873-1.019c-0.308-0.291-0.633-0.629-0.975-1.018c-0.273-0.291-0.479-0.63-0.615-1.019
				c-0.138-0.387-0.446-0.751-0.924-1.091c0-0.533-0.087-1.151-0.256-1.854c-0.172-0.703-0.258-1.201-0.258-1.491
				c0-0.775,0.273-2.4,0.822-4.874c0.547-2.473,1.161-4.473,1.847-6c0.684-1.528,1.334-2.873,1.95-4.037
				c0.615-1.164,0.923-1.769,0.923-1.818c0-0.339,0.119-0.691,0.359-1.055c0.238-0.364,0.394-0.691,0.462-0.982
				c0.272-0.193,0.478-0.364,0.615-0.509c0.272-0.969,0.701-2.084,1.283-3.346c0.581-1.26,1.146-2.352,1.693-3.273
				c0.206-0.436,0.17-0.824-0.103-1.164c0.342-0.728,0.77-1.563,1.282-2.509c0.514-0.945,1.043-1.928,1.592-2.946
				c0.547-1.019,1.111-2,1.692-2.946c0.58-0.945,1.077-1.806,1.488-2.582c0.752-1.115,1.386-1.988,1.898-2.618
				c0.513-0.63,1.452-0.946,2.822-0.946c0.41,0,0.854,0.098,1.334,0.291c0.479,0.194,0.924,0.291,1.334,0.291
				c0.206,0.291,0.375,0.437,0.513,0.437c0.411,0.534,0.685,1.226,0.822,2.073c0.136,0.849,0.205,1.443,0.205,1.782
				c0,0.243-0.069,0.643-0.205,1.2c-0.138,0.558-0.344,1.031-0.616,1.418l-14.47,27.857c0.478,0,0.939-0.229,1.385-0.69
				c0.444-0.46,0.837-0.812,1.181-1.055c0.41-0.339,0.975-0.715,1.693-1.127c0.718-0.412,1.282-0.788,1.692-1.127
				c0.137-0.146,0.599-0.521,1.387-1.127c0.785-0.605,1.642-1.273,2.564-2c0.924-0.728,1.797-1.37,2.617-1.928
				c0.821-0.557,1.368-0.836,1.643-0.836c0.271,0,0.528,0.122,0.77,0.364c0.238,0.243,0.496,0.389,0.77,0.436
				c0.41,0.049,0.939,0.062,1.59,0.037c0.65-0.023,1.215,0.062,1.694,0.254c1.847,0.922,3.01,1.844,3.489,2.765
				c0.478,0.921,0.718,1.891,0.718,2.909l-1.745,10.255c0,0.194,0.034,0.485,0.104,0.873c0.066,0.389,0.239,0.752,0.513,1.09
				c0.616-0.145,0.976-0.181,1.078-0.109c0.103,0.073,0.324,0.109,0.667,0.109c0.205,0,0.632-0.096,1.282-0.29
				c0.649-0.193,1.385-0.424,2.207-0.691c0.82-0.266,1.657-0.521,2.514-0.764c0.854-0.242,1.488-0.388,1.898-0.437
				c0.479-0.048,0.976-0.146,1.488-0.291S250.864,180.989,251.343,180.844z"/>
		</g>
	</g>
	<g>
		<g>
			<path fill="#FFFFFF" d="M103.863,221.021c0,0.146-0.068,0.534-0.205,1.164c-0.138,0.631-0.274,1.14-0.411,1.527
				c-0.068,0.099-0.188,0.268-0.358,0.51c-0.172,0.243-0.326,0.509-0.462,0.8c-0.274,0-0.582-0.121-0.924-0.364
				c-0.138,0.146-0.274,0.255-0.411,0.328c-0.138,0.072-0.273,0.182-0.409,0.328h0.103c0-0.097,0.033-0.17,0.103-0.219v-0.073
				c0-0.048-0.035-0.097-0.103-0.146c-0.411,0.098-0.736,0.218-0.976,0.364c-0.24,0.146-0.497,0.316-0.77,0.509
				c0-0.146,0-0.278,0-0.4c0-0.12-0.035-0.229-0.103-0.327c-0.344-0.097-0.754-0.315-1.231-0.654
				c-0.479-0.339-0.89-0.655-1.231-0.945c-0.069-0.097-0.104-0.17-0.104-0.219c0-0.047-0.034-0.146-0.102-0.291
				c0.067-0.145,0.102-0.338,0.102-0.582c0-0.242,0.067-0.46,0.206-0.655h-0.206c-0.204,0-0.308-0.073-0.308-0.218
				c0-0.193,0-0.436,0-0.727s0.068-0.557,0.206-0.8c0.067-0.048,0.136-0.06,0.205-0.037c0.067,0.025,0.136-0.011,0.205-0.109
				l0.308-0.363c-0.069-0.097-0.069-0.121,0-0.073c0.067,0.049,0.104-0.048,0.104-0.291c0-0.338-0.069-0.764-0.206-1.272
				c-0.138-0.509-0.325-1.042-0.563-1.6c-0.241-0.557-0.515-1.055-0.822-1.491s-0.633-0.751-0.975-0.946
				c-0.479-0.291-1.129-0.605-1.949-0.945c-0.821-0.338-1.37-0.509-1.643-0.509c-0.343,0-0.445,0.025-0.308,0.073
				c0.137,0.049,0.033,0.073-0.308,0.073c-0.344,0-0.549-0.06-0.616-0.182c-0.068-0.121-0.205-0.206-0.41-0.255
				c-0.069-0.048-0.41-0.072-1.027-0.072c-0.273,0-0.718,0.121-1.333,0.363c-0.616,0.243-1.249,0.521-1.898,0.837
				c-0.651,0.315-1.249,0.618-1.797,0.909s-0.855,0.485-0.923,0.582c-0.41,0.485-0.821,1.031-1.231,1.637
				c-0.41,0.607-0.685,1.177-0.82,1.709c-0.275,0.437-0.411,0.898-0.411,1.382c0,0.243,0.016,0.728,0.052,1.455
				c0.033,0.728,0.153,1.358,0.359,1.891c0,0.194,0.136,0.425,0.41,0.691c0.271,0.267,0.443,0.545,0.513,0.836
				c0.205,0.534,0.323,1.164,0.359,1.891c0.033,0.727,0.359,1.382,0.975,1.964c0.342,0.776,0.734,1.637,1.181,2.582
				c0.443,0.945,0.836,1.831,1.18,2.655c0,0.098,0.085,0.218,0.257,0.364c0.17,0.146,0.323,0.315,0.462,0.509
				c0.41,0.825,0.785,1.613,1.129,2.364c0.341,0.753,0.683,1.504,1.025,2.255c0.342,0.752,0.734,1.563,1.181,2.436
				c0.443,0.873,0.975,1.843,1.591,2.91c0.341,0.436,0.667,1.08,0.975,1.927c0.309,0.849,0.58,1.759,0.821,2.728
				c0.238,0.971,0.443,1.916,0.616,2.837c0.17,0.921,0.256,1.746,0.256,2.473c0,0.146-0.069,0.618-0.205,1.418
				c-0.139,0.8-0.344,1.491-0.615,2.073c-0.069,0.146-0.052,0.303,0.051,0.472c0.103,0.171,0.085,0.353-0.051,0.546
				c-0.138,0.485-0.515,1.019-1.129,1.6c-0.616,0.582-1.335,1.067-2.155,1.455c-0.138,0.098-0.359,0.267-0.667,0.509
				c-0.309,0.244-0.634,0.46-0.976,0.655c-0.068,0-0.189,0-0.358,0c-0.172,0-0.326,0.023-0.463,0.072
				c-0.753,0.291-1.677,0.521-2.77,0.691c-1.096,0.169-2.02,0.254-2.771,0.254h-2.258c-0.138,0-0.479-0.061-1.026-0.182
				c-0.548-0.122-1.095-0.267-1.642-0.437c-0.548-0.17-1.095-0.316-1.643-0.437c-0.548-0.121-0.889-0.182-1.025-0.182
				c-0.344,0-0.428,0.037-0.257,0.11c0.17,0.072,0.085,0.109-0.257,0.109c-0.205,0-0.513-0.146-0.924-0.437
				c-0.41-0.291-0.685-0.533-0.82-0.727c-0.411-0.291-1.164-0.63-2.258-1.019c-1.096-0.388-2.019-0.897-2.771-1.527
				c-0.684-0.533-1.539-1.31-2.565-2.328s-1.642-1.891-1.847-2.618c-0.274-0.291-0.531-0.655-0.77-1.091
				c-0.241-0.437-0.564-0.873-0.976-1.309c0-0.097,0.085-0.206,0.257-0.327c0.17-0.121,0.188-0.229,0.051-0.328
				c-0.068-0.146-0.273-0.315-0.615-0.509c0.206-0.291,0.239-0.691,0.103-1.2c-0.138-0.509-0.205-0.933-0.205-1.272
				c0-0.193-0.103-0.339-0.308-0.437c-0.205-0.097-0.309-0.266-0.309-0.509c0-0.242,0.052-0.388,0.155-0.437
				c0.102-0.047,0.153-0.146,0.153-0.291c0.136,0,0.222,0.062,0.256,0.182c0.034,0.122,0.188,0.231,0.462,0.327
				c0-0.338-0.052-0.69-0.153-1.055c-0.104-0.363-0.052-0.787,0.153-1.272c0.068,0,0.273,0.194,0.616,0.582
				c0.205-0.387,0.238-0.8,0.103-1.236c-0.138-0.437-0.308-0.848-0.513-1.236c0.205,0,0.272-0.061,0.205-0.182
				c-0.069-0.121,0.067-0.182,0.41-0.182c0.341,0,0.478,0.025,0.41,0.073c-0.069,0.049,0,0.073,0.205,0.073
				c0-0.242,0.068-0.473,0.206-0.691c0.136-0.219,0.205-0.473,0.205-0.764c0,0.244-0.052,0.485-0.154,0.728
				c-0.103,0.243-0.086,0.509,0.052,0.8c0.067,0.146,0.137,0.207,0.205,0.182c0.067-0.024,0.137-0.011,0.205,0.036
				c0.206,0.098,0.291,0.364,0.257,0.8c-0.035,0.437,0.221,0.68,0.77,0.728c0.067,0.485,0.272,1.018,0.616,1.6l0.513-0.364
				c0,0.485,0.085,1.031,0.257,1.637c0.17,0.607,0.375,1.2,0.615,1.782c0.239,0.582,0.514,1.104,0.821,1.563
				c0.308,0.462,0.599,0.789,0.873,0.982c0.341,0.243,0.718,0.667,1.128,1.273c0.41,0.607,0.786,0.909,1.129,0.909
				c0.272,0,0.359-0.037,0.257-0.109c-0.103-0.073-0.154-0.157-0.154-0.255c0.205,0.339,0.719,0.691,1.539,1.055
				c0.821,0.364,1.778,0.691,2.874,0.982c1.093,0.291,2.188,0.534,3.283,0.728c1.094,0.194,2.018,0.291,2.771,0.291
				c0.478,0,0.889-0.048,1.231-0.146l0.513,0.291c0.136-0.097,0.445-0.206,0.924-0.328c0.478-0.121,0.854-0.229,1.129-0.327
				c0.41-0.193,0.854-0.473,1.334-0.836c0.479-0.364,0.821-0.764,1.026-1.2c0.137-0.291,0.205-0.593,0.205-0.909
				c0-0.315,0-0.619,0-0.91c0-0.242-0.035-0.351-0.103-0.327c-0.069,0.024-0.103,0.012-0.103-0.037
				c0.067-0.291,0.118-0.618,0.154-0.982c0.033-0.363-0.018-0.69-0.154-0.981c-0.41-0.97-0.907-2.06-1.487-3.273
				c-0.583-1.211-1.198-2.473-1.848-3.782c-0.651-1.31-1.353-2.606-2.104-3.891c-0.754-1.285-1.507-2.485-2.258-3.601
				c0-0.097-0.309-0.812-0.924-2.146c-0.616-1.333-1.283-2.874-2.002-4.619c-0.718-1.746-1.385-3.479-2.001-5.2
				c-0.615-1.721-0.923-3.019-0.923-3.892c0-0.097,0.051-0.629,0.154-1.6c0.102-0.969,0.256-1.77,0.461-2.4
				c0.136-0.629,0.514-1.418,1.129-2.363c0.615-0.946,1.265-1.83,1.95-2.655c0-0.097-0.052-0.157-0.154-0.182
				c-0.103-0.024-0.153-0.109-0.153-0.254c0.41-0.097,0.803-0.292,1.18-0.583c0.375-0.291,0.7-0.437,0.975-0.437
				c0.342,0,0.41,0.062,0.205,0.182c-0.205,0.122-0.171,0.182,0.104,0.182c0.341,0,0.905-0.279,1.693-0.836
				c0.785-0.557,1.419-0.837,1.898-0.837c1.093-0.047,2.359-0.109,3.797-0.181c1.437-0.073,2.324-0.11,2.667-0.11
				c0.068,0,0.325,0.049,0.771,0.146c0.444,0.098,0.939,0.219,1.488,0.364c0.547,0.146,1.078,0.291,1.591,0.436
				s0.939,0.243,1.282,0.291c0.411,0.146,0.958,0.363,1.643,0.654c0.683,0.291,1.333,0.462,1.949,0.509
				c1.163,0.098,2.171,0.619,3.027,1.564c0.854,0.946,1.573,2.025,2.155,3.237c0.58,1.212,1.009,2.425,1.283,3.637
				C103.725,219.325,103.863,220.294,103.863,221.021z"/>
		</g>
		<g>
			<path fill="#FFFFFF" d="M150.144,243.278c0,1.746-0.205,3.408-0.615,4.982c-0.411,1.577-0.856,3.213-1.334,4.91
				c-0.343,1.262-0.891,2.449-1.643,3.564c-0.753,1.116-1.505,2.109-2.258,2.981c-0.479,0.437-0.992,0.886-1.538,1.346
				c-0.549,0.462-1.027,0.885-1.438,1.273c-0.343,0.338-0.891,0.509-1.642,0.509c-0.274,0-1.062-0.207-2.361-0.619
				c-1.3-0.411-2.326-0.836-3.078-1.272c-0.548-0.291-1.026-0.751-1.437-1.382c-0.48-0.873-0.908-1.746-1.283-2.618
				c-0.377-0.873-0.702-1.721-0.975-2.546c-0.479-0.969-0.89-1.975-1.231-3.018c-0.344-1.042-0.719-2.097-1.129-3.165
				c-0.274,0.194-0.582,0.473-0.924,0.837c-0.343,0.363-0.651,0.716-0.923,1.055c-0.139,0.194-0.429,0.425-0.873,0.691
				c-0.445,0.267-0.667,0.594-0.667,0.982c-0.138-0.146-0.292-0.157-0.462-0.036c-0.171,0.121-0.359,0.181-0.564,0.181
				c-1.574,1.358-3.182,2.583-4.823,3.673c-1.642,1.091-3.011,2.218-4.104,3.382c-0.685,0.582-1.643,1.164-2.874,1.746
				c-1.231,0.582-2.224,1.018-2.976,1.309v0.8h-3.592c-0.41,0-0.993-0.134-1.745-0.4c-0.753-0.266-1.333-0.546-1.744-0.837
				c-0.344-0.146-0.667-0.423-0.976-0.836c-0.308-0.411-0.667-0.884-1.077-1.418c-0.41-0.533-0.702-1.055-0.872-1.564
				c-0.172-0.509-0.256-0.884-0.256-1.127c0-1.066,0.051-2.364,0.153-3.892c0.103-1.527,0.684-3.055,1.744-4.582
				s2.189-2.982,3.387-4.364c1.196-1.382,2.172-2.533,2.925-3.455c0.684-0.969,1.761-2.23,3.232-3.782
				c1.471-1.551,2.925-3.055,4.361-4.509c0.958,0.098,1.812,0.158,2.566,0.182c0.752,0.025,1.675,0.376,2.771,1.055
				c0.547,0.291,0.957,0.716,1.231,1.272c0.272,0.558,0.547,1.08,0.821,1.564c-0.344,0.194-0.634,0.461-0.872,0.8
				c-0.241,0.34-0.601,0.655-1.078,0.946v0.655c-0.89,0.97-1.899,2.085-3.027,3.346c-1.129,1.262-2.275,2.558-3.438,3.891
				c-1.164,1.334-2.173,2.655-3.027,3.964c-0.856,1.309-0.941,2.449-0.257,3.418v0.291c0.342-0.193,0.872-0.557,1.591-1.091
				c0.718-0.533,1.452-1.138,2.206-1.818c0.752-0.679,1.521-1.357,2.31-2.037c0.785-0.678,1.452-1.236,2.001-1.672
				c1.709-1.697,2.786-2.801,3.232-3.31c0.444-0.509,0.854-0.92,1.231-1.236c0.375-0.315,0.837-0.533,1.386-0.655
				c0.547-0.12,1.334-0.181,2.359-0.181c0.411,0,0.752,0.134,1.027,0.4c0.272,0.267,0.58,0.473,0.923,0.618
				c1.367,0.194,2.6,0.606,3.694,1.236c1.094,0.631,1.848,1.625,2.259,2.982c0.409,1.358,0.854,2.534,1.333,3.527
				c0.479,0.995,0.855,1.903,1.13,2.728c0.82-0.775,1.521-1.673,2.103-2.691c0.58-1.018,1.026-2.024,1.335-3.019
				c0.308-0.993,0.598-1.976,0.872-2.946c0.272-0.97,0.444-1.793,0.513-2.473c0.067-0.629,0.052-1.442-0.052-2.437
				c-0.102-0.993-0.153-1.952-0.153-2.873c0-0.339,0.067-0.788,0.205-1.346c0.137-0.557,0.205-1.151,0.205-1.782
				c0,0.146,0.137,0.34,0.411,0.582c0.066,0.146,0.29,0.243,0.667,0.291c0.375,0.049,0.564,0.121,0.564,0.218
				c0.136,0.049,0.221,0.158,0.257,0.328c0.033,0.17,0.187,0.352,0.461,0.545c0.273-0.291,0.581-0.436,0.924-0.436v0.582
				c0.752,0.291,1.471,0.437,2.155,0.437c0.821,1.067,1.488,2.292,2.001,3.673C149.888,240.987,150.144,242.212,150.144,243.278z"/>
		</g>
		<g>
			<path fill="#FFFFFF" d="M179.801,256.225c-0.548,0.146-0.992,0.328-1.334,0.545c-0.343,0.219-0.754,0.376-1.231,0.473
				c0,0.34,0.375,0.582,1.129,0.727c-0.205,0.194-0.395,0.449-0.564,0.764c-0.171,0.315-0.359,0.643-0.564,0.981
				c-0.89-0.146-1.557,0.085-2.001,0.691c-0.445,0.606-0.667,1.2-0.667,1.782c-0.616,0.146-1.249,0.255-1.898,0.327
				c-0.651,0.073-1.352,0.109-2.104,0.109c-0.274,0.097-0.326,0.17-0.154,0.219c0.17,0.048,0.359,0.072,0.564,0.072
				c-0.548,0.048-1.181,0.182-1.898,0.4c-0.719,0.218-1.353,0.351-1.898,0.4v0.218c0,0.097-0.138,0.146-0.411,0.146
				s-0.667-0.073-1.18-0.218c-0.514-0.146-0.993-0.254-1.437-0.327c-0.446-0.073-0.857-0.085-1.232-0.037
				c-0.376,0.048-0.599,0.242-0.666,0.582l-1.13-1.091c-1.505-0.243-2.616-0.557-3.334-0.946c-0.719-0.388-1.729-1.066-3.027-2.037
				c-0.48-0.193-0.806-0.339-0.976-0.437c-0.172-0.097-0.309-0.242-0.411-0.436c-0.103-0.193-0.273-0.582-0.513-1.164
				c-0.24-0.582-0.564-1.624-0.975-3.127c-0.274-1.455-0.257-2.605,0.052-3.455c0.308-0.848,0.563-1.564,0.769-2.146
				c0.206-0.679,0.65-1.648,1.334-2.91c0.684-1.26,1.402-2.448,2.156-3.563c0.41-0.582,0.888-1.273,1.436-2.073
				c0.548-0.8,1.196-1.636,1.95-2.509c0.342-0.338,0.786-0.751,1.334-1.237c0.548-0.484,0.991-0.969,1.335-1.455
				c0.751-0.484,1.315-0.92,1.693-1.309c0.375-0.388,1.077-0.8,2.104-1.237c0.478-0.146,1.093-0.338,1.847-0.581
				c0.753-0.242,1.061-0.557,0.924-0.946c-0.138,0.049-0.205,0.098-0.205,0.146c0,0.146,0.136,0.218,0.41,0.218
				c0.411,0,0.513-0.037,0.308-0.109s-0.103-0.109,0.309-0.109c0.272,0,0.7,0.122,1.282,0.364c0.581,0.243,1.112,0.412,1.591,0.509
				c0.136,0.34,0.205,0.654,0.205,0.946c0,0.291,0.17,0.437,0.514,0.437c0.41,0,0.546-0.037,0.41-0.109
				c-0.138-0.073-0.035-0.109,0.308-0.109c0.273,0,0.496,0.073,0.667,0.218s0.359,0.291,0.564,0.437
				c0,0.727,0.085,1.236,0.257,1.527c0.17,0.291,0.393,0.485,0.667,0.582c0.272,0.098,0.529,0.207,0.77,0.327
				c0.239,0.122,0.359,0.425,0.359,0.91c0,0.098-0.069,0.376-0.205,0.836c-0.139,0.462-0.292,0.995-0.462,1.6
				c-0.172,0.607-0.376,1.213-0.616,1.819c-0.239,0.606-0.461,1.152-0.666,1.637c-0.411,0.582-1.077,1.345-2.002,2.291
				c-0.924,0.946-1.831,1.808-2.719,2.582c-0.821,0.583-1.712,1.286-2.669,2.109c-0.959,0.825-1.916,1.589-2.873,2.291
				c-0.959,0.704-1.745,1.322-2.36,1.855c-0.616,0.534-0.924,0.898-0.924,1.091c0,0.291,0.359,0.618,1.078,0.982
				c0.718,0.363,1.385,0.643,2.001,0.836c0.341,0.145,0.837,0.218,1.487,0.218s1.145,0,1.488,0c0.547,0,1.078-0.097,1.591-0.291
				c0.513-0.193,1.181-0.169,2.001,0.073c1.368-0.291,2.685-0.582,3.951-0.873c1.265-0.291,2.412-0.533,3.438-0.727
				C179.117,256.128,179.458,256.225,179.801,256.225z"/>
		</g>
		<g>
			<path fill="#FFFFFF" d="M207.098,256.225c-0.549,0.146-0.992,0.328-1.334,0.545c-0.343,0.219-0.754,0.376-1.231,0.473
				c0,0.34,0.375,0.582,1.129,0.727c-0.205,0.194-0.395,0.449-0.564,0.764c-0.172,0.315-0.359,0.643-0.564,0.981
				c-0.89-0.146-1.557,0.085-2.001,0.691c-0.445,0.606-0.667,1.2-0.667,1.782c-0.616,0.146-1.249,0.255-1.898,0.327
				c-0.651,0.073-1.353,0.109-2.104,0.109c-0.273,0.097-0.325,0.17-0.153,0.219c0.17,0.048,0.359,0.072,0.564,0.072
				c-0.549,0.048-1.181,0.182-1.898,0.4c-0.719,0.218-1.353,0.351-1.898,0.4v0.218c0,0.097-0.138,0.146-0.411,0.146
				s-0.667-0.073-1.18-0.218c-0.514-0.146-0.993-0.254-1.437-0.327c-0.446-0.073-0.857-0.085-1.232-0.037
				c-0.376,0.048-0.6,0.242-0.667,0.582l-1.128-1.091c-1.506-0.243-2.617-0.557-3.336-0.946c-0.719-0.388-1.729-1.066-3.026-2.037
				c-0.479-0.193-0.806-0.339-0.976-0.437c-0.172-0.097-0.308-0.242-0.41-0.436c-0.104-0.193-0.274-0.582-0.514-1.164
				c-0.24-0.582-0.564-1.624-0.975-3.127c-0.274-1.455-0.257-2.605,0.052-3.455c0.308-0.848,0.564-1.564,0.769-2.146
				c0.205-0.679,0.65-1.648,1.334-2.91c0.684-1.26,1.401-2.448,2.156-3.563c0.41-0.582,0.888-1.273,1.437-2.073
				c0.547-0.8,1.195-1.636,1.949-2.509c0.342-0.338,0.786-0.751,1.334-1.237c0.548-0.484,0.991-0.969,1.334-1.455
				c0.752-0.484,1.316-0.92,1.694-1.309c0.375-0.388,1.077-0.8,2.104-1.237c0.478-0.146,1.093-0.338,1.847-0.581
				c0.753-0.242,1.06-0.557,0.924-0.946c-0.138,0.049-0.205,0.098-0.205,0.146c0,0.146,0.136,0.218,0.41,0.218
				c0.411,0,0.514-0.037,0.308-0.109c-0.205-0.073-0.103-0.109,0.309-0.109c0.272,0,0.701,0.122,1.282,0.364
				c0.58,0.243,1.111,0.412,1.591,0.509c0.136,0.34,0.205,0.654,0.205,0.946c0,0.291,0.171,0.437,0.514,0.437
				c0.41,0,0.546-0.037,0.41-0.109c-0.138-0.073-0.035-0.109,0.308-0.109c0.272,0,0.496,0.073,0.667,0.218s0.359,0.291,0.564,0.437
				c0,0.727,0.085,1.236,0.257,1.527c0.17,0.291,0.393,0.485,0.666,0.582c0.273,0.098,0.53,0.207,0.771,0.327
				c0.239,0.122,0.359,0.425,0.359,0.91c0,0.098-0.069,0.376-0.205,0.836c-0.139,0.462-0.292,0.995-0.462,1.6
				c-0.172,0.607-0.377,1.213-0.616,1.819c-0.24,0.606-0.461,1.152-0.667,1.637c-0.41,0.582-1.077,1.345-2.001,2.291
				c-0.924,0.946-1.831,1.808-2.72,2.582c-0.82,0.583-1.711,1.286-2.668,2.109c-0.959,0.825-1.916,1.589-2.873,2.291
				c-0.96,0.704-1.745,1.322-2.36,1.855c-0.616,0.534-0.924,0.898-0.924,1.091c0,0.291,0.359,0.618,1.077,0.982
				c0.719,0.363,1.386,0.643,2.001,0.836c0.342,0.145,0.838,0.218,1.488,0.218s1.145,0,1.489,0c0.546,0,1.077-0.097,1.59-0.291
				c0.513-0.193,1.18-0.169,2.001,0.073c1.368-0.291,2.685-0.582,3.951-0.873c1.265-0.291,2.411-0.533,3.438-0.727
				C206.414,256.128,206.755,256.225,207.098,256.225z"/>
		</g>
		<g>
			<path fill="#FFFFFF" d="M246.504,237.168c0,0.146-0.087,0.267-0.257,0.363c-0.172,0.098-0.358,0.219-0.564,0.364
				c0,0.194,0.171,0.291,0.514,0.291c-0.138,0.34-0.343,0.534-0.615,0.582c-0.274,0.049-0.139,0.243,0.41,0.582
				c-0.549,0.194-1.146,0.389-1.796,0.582c-0.651,0.194-1.216,0.389-1.693,0.582c0,0.146,0.085,0.254,0.257,0.327
				c0.17,0.073,0.359,0.158,0.564,0.254c-0.344,0.631-1.044,1.067-2.104,1.31c-1.062,0.243-2.104,0.436-3.13,0.582
				c-0.205,0.243-0.564,0.582-1.077,1.019c-0.513,0.436-0.941,0.655-1.282,0.655c-0.275,0-0.344-0.037-0.206-0.109
				c0.137-0.073,0.103-0.157-0.104-0.254c-0.273,0-0.409,0.218-0.409,0.655c-1.026,0.146-2.155,0.376-3.387,0.69
				c-1.232,0.316-2.463,0.619-3.694,0.91c-0.139,0.049-0.172,0.109-0.103,0.182c0.066,0.073,0.103,0.158,0.103,0.254
				c-0.139,0-0.206-0.023-0.206-0.072c0-0.048-0.205-0.073-0.615-0.073c-0.205,0-0.839,0.134-1.898,0.4
				c-1.062,0.267-2.001,0.521-2.821,0.764c-0.07,0.049-0.19,0.158-0.36,0.327c-0.171,0.17-0.325,0.353-0.462,0.545
				c-0.479,0.049-0.992,0.207-1.539,0.473c-0.549,0.267-1.026,0.498-1.437,0.691c-0.205,0.582-0.429,1.285-0.667,2.109
				c-0.24,0.825-0.446,1.612-0.616,2.364c-0.171,0.752-0.325,1.407-0.462,1.963c-0.138,0.559-0.205,0.91-0.205,1.055
				c0,0.145,0.033,0.389,0.103,0.727c0.067,0.34,0.17,0.716,0.309,1.127c0.137,0.413,0.271,0.789,0.41,1.127
				c0.136,0.34,0.205,0.558,0.205,0.654c0,0.243-0.205,0.498-0.615,0.764c-0.411,0.267-0.616,0.57-0.616,0.909
				c-0.138,0-0.377,0.023-0.718,0.072c-0.344,0.048-0.652,0.073-0.924,0.073c-0.344,0-0.583-0.158-0.719-0.473
				c-0.138-0.314-0.308-0.545-0.514-0.691c-1.573-1.018-2.429-1.987-2.564-2.909c-0.139-0.92-0.308-1.842-0.514-2.764
				c-0.205-0.533-0.189-1.466,0.051-2.8c0.239-1.333,0.324-2.897,0.257-4.692c0-0.097-0.172-0.314-0.513-0.654
				c-0.343-0.339-0.685-0.691-1.026-1.055c-0.343-0.364-0.65-0.691-0.924-0.982c-0.274-0.291-0.41-0.509-0.41-0.655
				c0-0.193,0.085-0.593,0.257-1.2c0.17-0.605,0.256-1.175,0.256-1.709c0.342-0.242,0.514-0.411,0.514-0.509
				c0.205-0.047,0.393-0.109,0.564-0.182c0.17-0.073,0.393-0.109,0.666-0.109c0.411,0,0.564,0.036,0.463,0.109
				c-0.104,0.072,0.052,0.109,0.461,0.109c0.273,0,0.564-0.12,0.873-0.363c0.308-0.242,0.495-0.484,0.564-0.728
				c0.272-0.533,0.564-1.321,0.872-2.364c0.308-1.042,0.598-2.157,0.872-3.346c0.272-1.188,0.564-2.363,0.873-3.527
				c0.308-1.164,0.598-2.133,0.872-2.91c0.547-1.6,1.18-3.211,1.898-4.837c0.718-1.624,1.386-3.26,2.001-4.909
				c0.272-0.775,0.598-1.637,0.975-2.583c0.376-0.945,0.804-1.878,1.283-2.8c0.341-0.727,0.649-1.587,0.924-2.582
				c0.271-0.994,0.924-1.733,1.949-2.219c0.205-0.146,0.514-0.266,0.924-0.363c0.41-0.097,0.683-0.146,0.82-0.146
				c0.411,0,0.804,0.194,1.181,0.582c0.376,0.389,0.734,0.581,1.078,0.581c0.341,0,0.563-0.011,0.667-0.036
				c0.103-0.024,0.256-0.036,0.461-0.036l-0.308,0.072v0.364c0,0.146,0.103,0.389,0.308,0.728c0.205,0.34,0.444,0.68,0.719,1.018
				c0.272,0.34,0.496,0.68,0.667,1.019c0.17,0.34,0.256,0.582,0.256,0.727c0,0.194-0.119,0.631-0.358,1.31
				c-0.24,0.679-0.53,1.261-0.872,1.746c0.205,0.485,0.308,0.898,0.308,1.236c-1.026,2.473-2.07,4.91-3.13,7.31
				c-1.062,2.4-2.104,4.74-3.13,7.019c-0.205,0.971-0.497,2.012-0.872,3.127c-0.377,1.116-0.771,2.207-1.181,3.273v0.364
				c0.342,0.145,0.649,0.207,0.924,0.182c0.272-0.023,0.649-0.037,1.129-0.037c0.546-0.145,1.265-0.218,2.154-0.218
				c0.343,0,0.479,0.061,0.411,0.182c-0.068,0.121,0.103,0.181,0.513,0.181c0.342,0,0.734-0.06,1.181-0.181
				c0.444-0.121,0.906-0.206,1.386-0.255c2.324-0.291,4.806-0.521,7.439-0.691C240.363,237.544,243.288,237.363,246.504,237.168z"/>
		</g>
		<g>
			<path fill="#FFFFFF" d="M264.976,233.604c0,0.243-0.035,0.425-0.103,0.545c-0.068,0.122-0.172,0.231-0.308,0.328
				c0.136,0.728,0.154,1.637,0.051,2.728c-0.102,1.09-0.395,1.976-0.872,2.654c-0.205,0.146-0.53,0.267-0.975,0.364
				c-0.446,0.098-0.839,0.146-1.181,0.146c-0.273,0-0.735-0.109-1.385-0.328c-0.651-0.218-1.216-0.496-1.694-0.836
				c-0.479,0.146-0.752,0.363-0.82,0.654c-0.479,2.716-0.667,5.48-0.564,8.292c0.103,2.812-0.189,5.601-0.872,8.364
				c-0.138,0.68-0.325,1.552-0.564,2.619c-0.24,1.067-0.634,2.122-1.18,3.164c-0.549,1.042-1.318,1.927-2.31,2.655
				c-0.992,0.728-2.206,1.091-3.644,1.091c-0.41,0-0.633-0.037-0.667-0.109c-0.035-0.073-0.153-0.134-0.358-0.182
				c-0.138-0.098-0.206-0.109-0.206-0.037c0,0.073-0.205,0.11-0.615,0.11c-0.479,0-0.959-0.122-1.437-0.364
				c-0.479-0.243-0.959-0.473-1.438-0.691c-0.479-0.218-0.872-0.436-1.18-0.655c-0.308-0.218-0.531-0.327-0.667-0.327
				c-0.821-0.34-1.693-0.909-2.617-1.709c-0.923-0.8-1.78-1.685-2.565-2.655c-0.787-0.969-1.437-1.963-1.949-2.981
				c-0.514-1.019-0.77-1.892-0.77-2.619c0-0.436,0.205-1.127,0.615-2.072c0.41-0.946,0.924-1.733,1.539-2.364
				c0.342,0,0.615-0.047,0.821-0.145c0.067,0.194,0.034,0.424-0.103,0.69c-0.138,0.267-0.241,0.522-0.309,0.764
				c0.137,0.146,0.272,0.23,0.411,0.254c0.136,0.025,0.309,0.109,0.513,0.254c0.205,0,0.272,0.109,0.205,0.327
				c-0.068,0.219-0.102,0.498-0.102,0.836c0.272,0.194,0.461,0.303,0.564,0.328c0.102,0.025-0.088,0.207-0.564,0.545
				c0.41,0.534,0.547,0.97,0.41,1.309c0.205,0.291,0.495,0.595,0.872,0.909c0.375,0.316,0.427,0.667,0.154,1.055l0.41,0.291
				c0.342-0.291,0.718-0.437,1.129-0.437c0.547,0.68,0.957,1.431,1.231,2.255c0.272,0.825,0.924,1.479,1.949,1.964
				c0.616-0.388,1.129-0.873,1.54-1.455c0.41-0.582,0.752-1.139,1.026-1.673c0.615-1.018,1.061-2.218,1.334-3.601
				c0.272-1.382,0.478-2.775,0.615-4.182c0.137-1.406,0.171-2.739,0.104-4c-0.069-1.26-0.104-2.303-0.104-3.127
				c0-0.533,0.119-1.127,0.359-1.782c0.239-0.654,0.358-1.273,0.358-1.854c0-0.193-0.05-0.388-0.153-0.582
				c-0.103-0.193-0.154-0.388-0.154-0.582c0-0.484,0.068-0.97,0.206-1.455c0.137-0.484,0.272-1.115,0.41-1.891
				c0-0.193,0.017-0.691,0.052-1.491c0.033-0.8,0.17-1.637,0.41-2.51c0.239-0.873,0.547-1.647,0.924-2.327
				c0.375-0.679,0.872-1.019,1.488-1.019c0.41,0,0.649,0.025,0.718,0.073c0.068,0.049,0.206,0.122,0.411,0.218
				c1.642-0.146,3.438,0.207,5.388,1.054c1.949,0.849,3.438,1.637,4.464,2.364c0.067,0.146,0.103,0.28,0.103,0.4
				c0,0.121,0,0.254,0,0.4c0.41,0.194,0.785,0.521,1.129,0.981C264.805,233.011,264.976,233.362,264.976,233.604z M240.449,256.225
				h-0.41v-1.091h0.41V256.225z"/>
		</g>
	</g>
</g>
</svg>
