<?xml version="1.0" encoding="utf-8"?>
<!-- Generator: Adobe Illustrator 16.0.0, SVG Export Plug-In . SVG Version: 6.00 Build 0)  -->
<!DOCTYPE svg PUBLIC "-//W3C//DTD SVG 1.1//EN" "http://www.w3.org/Graphics/SVG/1.1/DTD/svg11.dtd">
<svg version="1.1" id="Layer_1" xmlns="http://www.w3.org/2000/svg" xmlns:xlink="http://www.w3.org/1999/xlink" x="0px" y="0px"
	 width="50px" height="50px" enable-background="new 0 0 50 50" xml:space="preserve">
<polygon fill="#00ADEE" stroke="#231F20" stroke-miterlimit="10" points="7.054,27.272 5.828,10.49 15.789,19.149 17.858,6.889 
	26.134,18.689 30.425,5.586 35.942,15.625 47.207,13.479 46.058,24.896 "/>
<polygon fill="#00ADEE" stroke="#231F20" stroke-miterlimit="10" points="7.896,36.544 9.506,45.279 9.736,40.988 12.264,43.287 
	11.038,39.916 13.874,36.621 9.429,38.46 12.188,28.651 "/>
<polygon fill="#00ADEE" stroke="#231F20" stroke-miterlimit="10" points="19.467,32.942 20.387,42.675 22.456,32.406 "/>
<polygon fill="#00ADEE" stroke="#231F20" stroke-miterlimit="10" points="26.9,41.448 26.803,41.028 24.142,29.647 30.731,34.016 
	32.418,27.349 34.87,39.532 27.974,34.398 "/>
<path fill="#00ADEE" stroke="#231F20" stroke-miterlimit="10" d="M44.295,31.104l-4.751-1.686c0,0-2.836,2.988-2.912,3.295
	s1.533,5.44,1.533,5.44s0.843,3.601,1.839,3.678s4.904-3.678,4.904-3.678l0.996,6.896l0.153-10.422l-6.207,0.613l3.678,0.689
	l-3.064,2.836l-2.529-5.364L44.295,31.104z"/>
</svg>
